<svg width="205" height="250" viewBox="0 0 205 250" fill="none" xmlns="http://www.w3.org/2000/svg">
<path d="M104.004 71.8308C94.1288 71.8308 78.8427 60.603 62.745 61.0088C41.5069 61.2794 22.0274 73.3188 11.0702 92.3925C-10.9796 130.675 5.38862 187.22 26.8973 218.333C37.4487 233.484 49.894 250.529 66.3975 249.987C82.2246 249.311 88.1767 239.707 107.386 239.707C126.459 239.707 131.87 249.987 148.644 249.582C165.689 249.311 176.511 234.16 186.927 218.874C198.967 201.289 203.972 184.244 204.242 183.297C203.836 183.162 171.1 170.581 170.694 132.704C170.424 101.05 196.532 85.8994 197.749 85.223C182.869 63.4438 160.007 61.0088 152.026 60.4677C131.194 58.8445 113.744 71.8308 104.004 71.8308ZM139.175 39.906C147.968 29.3546 153.785 14.6097 152.162 0C139.581 0.541098 124.43 8.38702 115.367 18.9384C107.25 28.2724 100.216 43.2879 102.11 57.627C116.043 58.7092 130.382 50.4574 139.175 39.906Z" fill="white"/>
</svg>
