<svg width="259" height="250" viewBox="0 0 259 250" fill="none" xmlns="http://www.w3.org/2000/svg">
<path fill-rule="evenodd" clip-rule="evenodd" d="M0.398926 116.997C0.398926 51.9799 54.8906 0 121.196 0C187.502 0 241.994 51.9799 241.994 116.997C241.994 182.015 187.502 233.994 121.196 233.994C54.8906 233.994 0.398926 182.015 0.398926 116.997ZM121.196 11.9961C61.1037 11.9961 12.395 59.0099 12.395 116.997C12.395 152.411 30.5622 183.732 58.3946 202.751C76.1354 214.874 97.8032 221.998 121.196 221.998C181.289 221.998 229.998 174.985 229.998 116.997C229.998 95.6626 223.404 75.8135 212.076 59.2447C192.615 30.7794 159.18 11.9961 121.196 11.9961Z" fill="white"/>
<path d="M112.562 172.997C80.4335 172.997 61.5345 147.045 61.5345 114.762C61.5345 81.2137 82.3229 53.9955 122.01 53.9955C162.958 53.9955 176.817 81.8471 177.447 97.6712H147.839C147.209 88.8099 139.649 75.517 121.381 75.517C101.852 75.517 89.2526 92.6079 89.2526 113.496C89.2526 134.385 101.852 151.475 121.381 151.475C139.02 151.475 146.579 137.55 149.729 123.624H121.381V112.23H180.865V170.465H154.769V133.752C152.878 147.045 144.689 172.997 112.562 172.997Z" fill="white"/>
<path fill-rule="evenodd" clip-rule="evenodd" d="M225.08 69.6776C206.68 31.9764 166.982 5.99806 121.196 5.99806C57.9971 5.99806 6.39698 55.4949 6.39698 116.997C6.39698 160.234 31.8991 197.538 69.0049 215.881C88.897 236.85 117.495 250 149.275 250C209.364 250 258.076 202.989 258.076 144.999C258.076 115.453 245.431 88.7577 225.08 69.6776ZM212.076 59.2447C223.404 75.8135 229.998 95.6626 229.998 116.997C229.998 174.985 181.289 221.998 121.196 221.998C97.8032 221.998 76.1354 214.874 58.3946 202.751C30.5622 183.732 12.395 152.411 12.395 116.997C12.395 59.0099 61.1037 11.9961 121.196 11.9961C159.18 11.9961 192.615 30.7794 212.076 59.2447ZM112.562 172.997C80.4335 172.997 61.5345 147.045 61.5345 114.762C61.5345 81.2137 82.3229 53.9955 122.01 53.9955C162.958 53.9955 176.817 81.8471 177.447 97.6712H147.839C147.209 88.8099 139.649 75.517 121.381 75.517C101.852 75.517 89.2526 92.6079 89.2526 113.496C89.2526 134.385 101.852 151.475 121.381 151.475C139.02 151.475 146.579 137.55 149.729 123.624H121.381V112.23H180.865V170.465H154.769V133.752C152.878 147.045 144.689 172.997 112.562 172.997Z" fill="white"/>
</svg>
