<svg width="251" height="250" viewBox="0 0 251 250" fill="none" xmlns="http://www.w3.org/2000/svg">
<path d="M125.323 0C56.2872 0 0.320312 55.9654 0.320312 125.001C0.320312 194.039 56.2872 250 125.323 250C194.365 250 250.326 194.039 250.326 125.001C250.326 55.9699 194.365 0.00597072 125.321 0.00597072L125.323 0ZM182.648 180.287C180.409 183.959 175.602 185.123 171.93 182.869C142.581 164.942 105.634 160.882 62.1221 170.823C57.9291 171.779 53.7496 169.151 52.7943 164.957C51.8345 160.763 54.4512 156.583 58.6546 155.628C106.271 144.749 147.116 149.433 180.065 169.569C183.737 171.823 184.902 176.615 182.648 180.287ZM197.948 146.251C195.127 150.836 189.126 152.284 184.543 149.463C150.943 128.81 99.7244 122.829 59.9816 134.893C54.8273 136.45 49.3835 133.545 47.8192 128.4C46.2668 123.245 49.173 117.812 54.3183 116.245C99.7155 102.47 156.153 109.142 194.739 132.854C199.321 135.675 200.769 141.674 197.948 146.251ZM199.261 110.808C158.974 86.879 92.5043 84.6787 54.0392 96.3531C47.8625 98.2264 41.3304 94.7395 39.4586 88.5627C37.5868 82.383 41.0707 75.8555 47.2519 73.9777C91.4072 60.5733 164.81 63.1631 211.194 90.6988C216.762 93.9961 218.583 101.171 215.284 106.72C212 112.276 204.805 114.107 199.267 110.808H199.261Z" fill="white"/>
</svg>
