<svg width="377" height="250" viewBox="0 0 377 250" fill="none" xmlns="http://www.w3.org/2000/svg">
<path d="M270.7 0C239.852 0 215.738 23.234 193.909 52.7483C163.912 14.5538 138.825 0 108.804 0C47.5967 0 0.700195 79.6552 0.700195 163.966C0.700195 216.724 26.2241 250 68.9761 250C99.7462 250 121.876 235.494 161.217 166.724C161.217 166.724 177.617 137.764 188.899 117.815C192.852 124.197 197.016 131.075 201.39 138.448L219.838 169.483C255.775 229.62 275.798 250 312.079 250C353.728 250 376.907 216.269 376.907 162.414C376.907 74.1379 328.953 0 270.7 0ZM131.217 148.103C99.3209 198.103 88.2864 209.31 70.5278 209.31C52.2519 209.31 41.3898 193.266 41.3898 164.655C41.3898 103.448 71.9071 40.8621 108.286 40.8621C127.987 40.8621 144.45 52.2396 169.667 88.3404C145.722 125.068 131.217 148.103 131.217 148.103ZM251.6 141.809L229.542 105.022C223.573 95.3139 217.836 86.3781 212.332 78.2144C232.212 47.5306 248.611 32.2415 268.114 32.2415C308.631 32.2415 341.045 91.8966 341.045 165.172C341.045 193.104 331.897 209.31 312.942 209.31C294.774 209.31 286.095 197.312 251.6 141.809Z" fill="white"/>
</svg>
