<svg width="219" height="250" viewBox="0 0 219 250" fill="none" xmlns="http://www.w3.org/2000/svg">
<path d="M79.3288 207.073C98.7614 207.04 114.695 191.658 115.411 172.24V0H158.491C158.483 0.746623 158.491 1.49325 158.512 2.23987C158.544 3.41779 158.614 4.59163 158.719 5.76141C158.87 7.46013 159.11 9.15275 159.407 10.8332C162.41 26.9374 171.902 41.1009 185.659 49.9973C195.314 56.4138 206.65 59.8336 218.242 59.8296V69.1471C218.27 69.1532 218.295 69.1573 218.323 69.1634V102.495C196.86 102.544 175.93 95.8384 158.491 83.3289V170.908C158.402 214.608 122.946 249.987 79.2454 249.987C28.0064 250.987 -11.7189 195.806 3.64903 146.995C14.0347 114.003 44.6565 91.5885 79.2454 91.6618C82.8178 91.7126 86.3821 92.0198 89.9118 92.5793L89.8701 102.745V103.246L89.8284 136.577C86.3739 135.503 82.7812 134.941 79.162 134.909C62.5674 134.994 48.1597 146.365 44.2191 162.485C38.7152 184.989 56.4297 206.872 79.3288 207.073Z" fill="black"/>
</svg>
