<svg width="219" height="250" viewBox="0 0 219 250" fill="none" xmlns="http://www.w3.org/2000/svg">
<path d="M79.8991 207.073C99.3317 207.04 115.265 191.658 115.981 172.24V0H159.062C159.054 0.746623 159.062 1.49325 159.082 2.23987C159.115 3.41779 159.184 4.59163 159.29 5.76141C159.44 7.46013 159.68 9.15275 159.977 10.8332C162.98 26.9374 172.473 41.1009 186.229 49.9973C195.884 56.4138 207.22 59.8336 218.812 59.8296V69.1471C218.841 69.1532 218.865 69.1573 218.894 69.1634V102.495C197.431 102.544 176.501 95.8384 159.062 83.3289V170.908C158.972 214.608 123.517 249.987 79.8157 249.987C28.5767 250.987 -11.1486 195.806 4.21935 146.995C14.605 114.003 45.2268 91.5885 79.8157 91.6618C83.3881 91.7126 86.9524 92.0198 90.4821 92.5793L90.4404 102.745V103.246L90.3987 136.577C86.9443 135.503 83.3515 134.941 79.7323 134.909C63.1377 134.994 48.73 146.365 44.7894 162.485C39.2855 184.989 57 206.872 79.8991 207.073Z" fill="white"/>
</svg>
