<?xml version="1.0" encoding="utf-8"?>
<!-- Generator: Adobe Illustrator 24.1.2, SVG Export Plug-In . SVG Version: 6.00 Build 0)  -->
<svg version="1.1" id="Capa_1" xmlns="http://www.w3.org/2000/svg" xmlns:xlink="http://www.w3.org/1999/xlink" x="0px" y="0px"
	 viewBox="0 0 377.1 294.9" style="enable-background:new 0 0 377.1 294.9;" xml:space="preserve">
<style type="text/css">
	.st0{fill:#E6007E;}
	.st1{fill:#E30613;}
	.st2{fill:#FFFFFF;}
	.st3{fill:#3E3F92;}
	.st4{fill:#FFE300;}
	.st5{fill:none;stroke:#FFCC00;stroke-width:3;stroke-miterlimit:10;}
	.st6{fill:none;stroke:#83D0F5;stroke-miterlimit:10;}
	.st7{fill:#14152A;}
	.st8{fill:#0C0E1B;}
	.st9{fill:#F39715;}
	.st10{fill:#D07C10;}
	.st11{fill:#FFCC00;}
	.st12{fill:#83D0F5;}
</style>
<path class="st0" d="M354.8,295.9H19.2C7.5,295.9-2,286.4-2,274.6V18.8C-2,7.1,7.5-2.4,19.2-2.4h335.6c11.7,0,21.2,9.5,21.2,21.2
	v255.9C376,286.4,366.5,295.9,354.8,295.9z"/>
<g>
	<path class="st1" d="M216.6,35.3h-16.3c-1.8-4.6,0.5-12.9,6-13.3c2.6,0,70.7,0.9,70.7,0.9s6.4,0,6.9,6c0.4,6,0.4,74.6,0.4,74.6
		c16.3,0,13.7,1.7,15.4,1.7c1.7,0,1.7,10.3-3.9,10.3c-5.6,0-71.1,0.4-71.1,0.4s-6.5,0-6.9-6.9C217.5,102.1,216.6,35.3,216.6,35.3z"
		/>
	<rect x="217" y="22.4" class="st2" width="68.1" height="82.7"/>
	<rect x="224.7" y="32.7" class="st3" width="25.3" height="19.3"/>
	<rect x="224.3" y="54.1" class="st3" width="25.3" height="8.1"/>
	<rect x="252.1" y="54.1" class="st3" width="25.3" height="8.1"/>
	<rect x="224.3" y="64" class="st3" width="25.3" height="8.1"/>
	<rect x="252.1" y="64" class="st3" width="25.3" height="8.1"/>
	<rect x="224.3" y="74.3" class="st3" width="25.3" height="8.1"/>
	<rect x="224.3" y="85.4" class="st3" width="25.3" height="8.1"/>
	<rect x="252.1" y="74.4" class="st3" width="25.3" height="8.1"/>
	<rect x="252.1" y="85.5" class="st3" width="25.3" height="8.1"/>
	<path class="st3" d="M272.3,52.4c-5.1-0.7-19.5,3-19.3-6c-0.1-4.7-1.1-13.4,6-13.3c5.1,0.7,19.5-3,19.3,6
		C278.3,43.9,279.3,52.6,272.3,52.4z"/>
</g>
<path class="st2" d="M201.1,234.1h-68.6c-3.8,0-6.9-3.1-6.9-6.9v-57c0-3.8,3.1-6.9,6.9-6.9h68.6c3.8,0,6.9,3.1,6.9,6.9v57
	C208,231.1,204.9,234.1,201.1,234.1z"/>
<rect x="125.7" y="163.4" class="st1" width="81.9" height="14.6"/>
<circle class="st4" cx="17.3" cy="71.7" r="10.3"/>
<circle class="st4" cx="52.4" cy="41.3" r="10.3"/>
<circle class="st4" cx="120.1" cy="97.9" r="10.3"/>
<circle class="st4" cx="161.7" cy="19" r="10.3"/>
<rect x="7.6" y="56.2" transform="matrix(0.7071 -0.7071 0.7071 0.7071 -31.4442 40.2547)" class="st4" width="50.6" height="3.8"/>
<rect x="101.7" y="56.1" transform="matrix(0.4661 -0.8847 0.8847 0.4661 23.82 155.8121)" class="st4" width="78.6" height="4.1"/>
<rect x="45.1" y="66.8" transform="matrix(0.7917 0.6109 -0.6109 0.7917 59.6638 -37.2319)" class="st4" width="78.6" height="4.1"/>
<circle class="st1" cx="122" cy="97.1" r="30.9"/>
<circle class="st3" cx="122.7" cy="97.1" r="22.9"/>
<image style="overflow:visible;" width="81" height="73" xlink:href="9937258D.png"  transform="matrix(1 0 0 1 115 184.7143)">
</image>
<rect x="115.9" y="185.3" class="st1" width="79.3" height="16.3"/>
<rect x="147.1" y="210.6" class="st0" width="37.3" height="37.3"/>
<path class="st5" d="M290.7,214.2c30,27.6,23.6,58.9-8.6,61.1c-26.1,0.9-34.5-33-37.5-55.7c-1.7-4.3-7.7-20.4-16.3-31.3
	c-17.4-22-14.2-39,2.8-45.6c19.7-7.7,27.4-0.2,35.6,31.1C270.1,186.5,276.1,203.7,290.7,214.2z"/>
<path class="st6" d="M306.1,182.3c13.7-44.6,25-47,47.1-29.1c20.4,21.7-9.6,33.8-22.7,49.1c-33,38.7-42.1,63.2-54.9,54.6
	C254.6,242.6,296,215.3,306.1,182.3z"/>
<g transform="translate(0.000000,1280.000000) scale(0.100000,-0.100000)">
	<path class="st2" d="M2797.3,10593.5c0-0.2-1.2-7.1-2.6-15.3c-1.5-8.3-3.9-21.9-5.3-30.4c-1.5-8.5-2.8-15.4-2.8-15.5
		c0,0-2.5-0.6-5.4-1.1c-9.4-1.8-18.9-4.4-28-7.6c-4.5-1.5-4.6-1.6-5.3-0.9c-0.4,0.4-9.1,10.9-19.5,23.2
		c-10.3,12.4-19,22.8-19.5,23.2c-0.6,0.7-1.5,0.2-19.3-10.1c-10.2-5.9-18.6-10.9-18.7-11.1c-0.1-0.2,4.7-13.5,10.5-29.5l10.6-29.1
		l-1.6-1.5c-11.7-10.6-13.5-12.3-24.9-24.9l-1.5-1.6l-28.5,10.4c-15.7,5.8-28.9,10.5-29.4,10.5c-0.8,0.1-2.4-2.5-11.7-18.5
		c-10.3-17.8-10.7-18.6-10.1-19.3c0.4-0.4,10.9-9.2,23.4-19.7c12.5-10.4,22.9-19.2,23.2-19.4c0.4-0.4,0.2-1.4-1.1-5.1
		c-3.4-10.1-5.7-18.5-7.5-27.9c-0.6-3-1.1-5.5-1.1-5.5c-0.1,0-7.1-1.3-15.5-2.8c-8.5-1.5-22.1-3.9-30.4-5.3
		c-8.2-1.5-15.1-2.6-15.3-2.6s-0.3-9.8-0.3-21.9c0-12,0.2-21.9,0.3-21.9s7.1-1.2,15.3-2.6c8.3-1.5,21.9-3.9,30.4-5.3
		c8.5-1.5,15.4-2.8,15.5-2.8c0,0,0.6-2.5,1.1-5.5c1.8-9.4,4.1-17.8,7.5-27.9c1.3-3.7,1.5-4.7,1.1-5.1c-0.3-0.2-10.7-9-23.2-19.4
		c-12.5-10.4-23-19.3-23.4-19.7c-0.7-0.6-0.2-1.5,10.1-19.3c9.3-16,10.9-18.6,11.7-18.5c0.5,0,13.7,4.7,29.4,10.5l28.5,10.4l1.5-1.6
		c11.4-12.6,13.2-14.3,24.9-24.9l1.6-1.5l-10.6-29.1c-5.8-16-10.6-29.3-10.5-29.5c0.1-0.2,8.5-5.2,18.7-11.1
		c17.8-10.3,18.6-10.7,19.3-10.1c0.4,0.4,9.1,10.9,19.5,23.2s19.1,22.8,19.5,23.2c0.7,0.7,0.9,0.7,5.3-0.9c9.1-3.2,18.6-5.8,28-7.6
		c2.9-0.5,5.3-1.1,5.4-1.1c0-0.1,1.3-7.1,2.8-15.5c1.5-8.5,3.9-22.1,5.3-30.4c1.5-8.2,2.6-15.1,2.6-15.3s9.8-0.3,21.8-0.3h21.8
		l2.1,11.8c1.1,6.5,3.6,20.3,5.4,30.7c1.8,10.4,3.3,18.9,3.4,19c0,0,2.8,0.6,6.1,1.3c10.3,2,17,3.8,27.3,7.3
		c3.7,1.3,4.7,1.5,5.1,1.1c0.2-0.3,9-10.7,19.4-23.2c10.4-12.5,19.3-23,19.7-23.4c0.6-0.7,1.5-0.2,19.3,10.1
		c10.2,5.9,18.6,10.9,18.7,11.1c0.1,0.3-6.6,18.8-18.8,52.3l-2.3,6.2l2.6,2.3c8.8,7.7,15.6,14.4,23.1,23.1l2.2,2.6l7.5-2.7
		c28.7-10.5,50.7-18.5,50.9-18.5c0.2,0,3.8,6,8,13.3c4.2,7.3,9,15.7,10.8,18.7c2.6,4.4,3.1,5.6,2.7,5.9c-0.3,0.3-10.8,9.1-23.4,19.7
		c-12.6,10.5-23.1,19.4-23.4,19.6c-0.4,0.4-0.2,1.4,1.1,5.1c3.4,10,6.1,19.9,7.7,28.9c0.5,2.6,1.1,4.7,1.2,4.7s9.2,1.5,20.1,3.4
		c10.9,1.9,24.5,4.3,30.2,5.3c5.7,1,10.5,1.8,10.6,1.8c0.2,0,0.3,9.8,0.3,21.9c0,12-0.2,21.9-0.3,21.9c-0.2,0-7,1.2-15.1,2.6
		c-8.1,1.4-21.8,3.8-30.5,5.3l-15.7,2.8l-0.9,4.7c-1.7,8.9-4.3,18.8-7.7,28.8c-1.3,3.7-1.5,4.7-1.1,5.1c0.3,0.2,10.8,9.1,23.4,19.6
		c12.6,10.5,23.1,19.4,23.4,19.7c0.4,0.4-0.1,1.5-2.7,5.9c-1.7,3-6.6,11.4-10.8,18.7c-4.2,7.3-7.8,13.3-8,13.3
		c-0.3,0-22.3-7.9-50.9-18.5l-7.5-2.7l-2.2,2.6c-7.5,8.7-14.3,15.4-23.1,23.1l-2.6,2.3l2.3,6.2c12.2,33.4,18.9,52,18.8,52.3
		c-0.1,0.2-8.5,5.2-18.7,11.1c-17.8,10.3-18.6,10.7-19.3,10.1c-0.4-0.4-9.2-10.9-19.7-23.4s-19.2-22.9-19.4-23.2
		c-0.4-0.4-1.4-0.2-5.1,1.1c-10.3,3.5-17,5.3-27.3,7.3c-3.3,0.6-6.1,1.3-6.1,1.3c-0.1,0.1-1.6,8.6-3.4,19
		c-1.8,10.4-4.3,24.2-5.4,30.7l-2.1,11.8h-21.8C2807.1,10593.8,2797.3,10593.6,2797.3,10593.5z M2827.5,10487.4
		c27.5-1,56.9-11.2,80.5-28c14.5-10.3,27.4-23.3,37.4-37.9c15.1-21.8,24.2-47.1,26.6-73.8c0.6-6.5,0.6-20.2,0-26.8
		c-3.8-42.1-24.4-80.4-57.4-106.7c-20-15.9-44.4-26.8-69.5-31.1c-10-1.7-12.2-1.9-25.9-1.9c-13.8,0-16,0.2-25.9,1.9
		c-47.7,8.1-89.3,38.9-111.1,82.3c-12,23.8-17.2,48.6-16.1,75.8c1.9,48.6,27.6,93.9,68.4,120.9c20.3,13.5,42.4,21.5,67.2,24.6
		c3.9,0.5,16.4,1.1,18.5,0.9C2820.9,10487.7,2824.2,10487.5,2827.5,10487.4z"/>
</g>
<g transform="translate(0.000000,1280.000000) scale(0.100000,-0.100000)">
	<path class="st2" d="M3459.2,10668.1c0-0.1-0.7-4.2-1.6-9.2c-0.9-5-2.3-13.2-3.2-18.2c-0.9-5.1-1.7-9.3-1.7-9.3
		c0,0-1.5-0.3-3.2-0.7c-5.7-1.1-11.4-2.6-16.8-4.5c-2.7-0.9-2.8-0.9-3.2-0.5c-0.2,0.2-5.5,6.5-11.7,13.9
		c-6.2,7.4-11.4,13.7-11.7,13.9c-0.4,0.4-0.9,0.1-11.6-6c-6.1-3.6-11.2-6.5-11.2-6.7c0-0.1,2.8-8.1,6.3-17.7l6.4-17.4l-1-0.9
		c-7-6.3-8.1-7.4-14.9-15l-0.9-0.9l-17.1,6.3c-9.4,3.5-17.4,6.3-17.7,6.3c-0.5,0-1.4-1.5-7-11.1c-6.2-10.7-6.4-11.2-6-11.6
		c0.2-0.2,6.6-5.5,14.1-11.8c7.5-6.3,13.8-11.5,13.9-11.7c0.2-0.2,0.1-0.9-0.7-3.1c-2.1-6.1-3.4-11.1-4.5-16.7
		c-0.3-1.8-0.7-3.3-0.7-3.3c0,0-4.2-0.8-9.3-1.7c-5.1-0.9-13.3-2.3-18.2-3.2c-4.9-0.9-9.1-1.6-9.2-1.6s-0.2-5.9-0.2-13.1
		c0-7.2,0.1-13.1,0.2-13.1s4.2-0.7,9.2-1.6c5-0.9,13.2-2.3,18.2-3.2c5.1-0.9,9.3-1.7,9.3-1.7c0,0,0.3-1.5,0.7-3.3
		c1.1-5.6,2.4-10.7,4.5-16.7c0.8-2.2,0.9-2.8,0.7-3.1c-0.2-0.1-6.4-5.4-13.9-11.7s-13.8-11.6-14.1-11.8c-0.4-0.4-0.1-0.9,6-11.6
		c5.6-9.6,6.5-11.2,7-11.1c0.3,0,8.2,2.8,17.7,6.3l17.1,6.3l0.9-0.9c6.8-7.6,7.9-8.6,14.9-15l1-0.9l-6.4-17.4
		c-3.5-9.6-6.4-17.6-6.3-17.7c0-0.1,5.1-3.1,11.2-6.7c10.7-6.2,11.2-6.4,11.6-6c0.2,0.2,5.5,6.5,11.7,13.9
		c6.2,7.4,11.5,13.7,11.7,13.9c0.4,0.4,0.5,0.4,3.2-0.5c5.4-1.9,11.1-3.5,16.8-4.5c1.8-0.3,3.2-0.6,3.2-0.7c0,0,0.8-4.2,1.7-9.3
		c0.9-5.1,2.3-13.3,3.2-18.2c0.9-4.9,1.6-9.1,1.6-9.2c0-0.1,5.9-0.2,13.1-0.2h13.1l1.3,7.1c0.7,3.9,2.1,12.2,3.2,18.4
		c1.1,6.2,2,11.3,2,11.4c0,0,1.7,0.4,3.7,0.8c6.2,1.2,10.2,2.3,16.4,4.4c2.2,0.8,2.8,0.9,3.1,0.7c0.1-0.2,5.4-6.4,11.7-13.9
		c6.3-7.5,11.6-13.8,11.8-14.1c0.4-0.4,0.9-0.1,11.6,6c6.1,3.6,11.2,6.5,11.2,6.7c0,0.2-4,11.3-11.3,31.4l-1.4,3.7l1.6,1.4
		c5.3,4.6,9.3,8.7,13.9,13.9l1.3,1.6l4.5-1.6c17.2-6.3,30.4-11.1,30.6-11.1c0.1,0,2.3,3.6,4.8,8c2.5,4.4,5.4,9.4,6.5,11.2
		c1.5,2.6,1.8,3.3,1.6,3.6c-0.2,0.2-6.5,5.5-14.1,11.8c-7.6,6.3-13.9,11.6-14.1,11.8c-0.2,0.2-0.1,0.9,0.7,3.1
		c2,6,3.6,11.9,4.6,17.3c0.3,1.6,0.6,2.8,0.7,2.8c0.1,0,5.5,0.9,12.1,2.1s14.7,2.6,18.1,3.2c3.4,0.6,6.3,1.1,6.4,1.1
		c0.1,0,0.2,5.9,0.2,13.1c0,7.2-0.1,13.1-0.2,13.1s-4.2,0.7-9.1,1.6c-4.9,0.9-13.1,2.3-18.3,3.2l-9.4,1.7l-0.5,2.8
		c-1,5.3-2.6,11.3-4.6,17.3c-0.8,2.2-0.9,2.8-0.7,3.1c0.2,0.1,6.5,5.5,14.1,11.8c7.6,6.3,13.9,11.6,14.1,11.8
		c0.2,0.2-0.1,0.9-1.6,3.6c-1,1.8-4,6.8-6.5,11.2c-2.5,4.4-4.7,8-4.8,8c-0.2,0-13.4-4.8-30.6-11.1l-4.5-1.6l-1.3,1.6
		c-4.5,5.2-8.6,9.2-13.9,13.9l-1.6,1.4l1.4,3.7c7.3,20.1,11.4,31.2,11.3,31.4c0,0.1-5.1,3.1-11.2,6.7c-10.7,6.2-11.2,6.4-11.6,6
		c-0.2-0.2-5.5-6.6-11.8-14.1c-6.3-7.5-11.5-13.8-11.7-13.9c-0.2-0.2-0.9-0.1-3.1,0.7c-6.2,2.1-10.2,3.2-16.4,4.4
		c-2,0.4-3.6,0.8-3.7,0.8c0,0-1,5.2-2,11.4c-1.1,6.2-2.6,14.5-3.2,18.4l-1.3,7.1h-13.1
		C3465.1,10668.3,3459.2,10668.2,3459.2,10668.1z M3477.3,10604.4c16.5-0.6,34.2-6.7,48.3-16.8c8.7-6.2,16.4-14,22.5-22.8
		c9.1-13.1,14.5-28.2,16-44.3c0.3-3.9,0.3-12.1,0-16.1c-2.3-25.3-14.6-48.2-34.5-64c-12-9.6-26.6-16.1-41.7-18.7
		c-6-1-7.3-1.1-15.6-1.1s-9.6,0.1-15.6,1.1c-28.6,4.8-53.6,23.3-66.7,49.4c-7.2,14.3-10.3,29.1-9.7,45.5
		c1.2,29.2,16.5,56.3,41.1,72.6c12.2,8.1,25.4,12.9,40.3,14.7c2.3,0.3,9.9,0.7,11.1,0.6
		C3473.3,10604.6,3475.3,10604.5,3477.3,10604.4z"/>
</g>
<g transform="translate(0.000000,1280.000000) scale(0.100000,-0.100000)">
	<path class="st1" d="M3333.5,11318c0-0.1-0.9-5.5-2.1-12c-1.1-6.5-3-17.2-4.2-23.8c-1.2-6.6-2.2-12.1-2.2-12.1c0,0-1.9-0.4-4.2-0.9
		c-7.4-1.4-14.8-3.4-21.9-5.9c-3.5-1.2-3.6-1.2-4.2-0.7c-0.3,0.3-7.1,8.5-15.2,18.2c-8.1,9.7-14.9,17.9-15.2,18.2
		c-0.5,0.5-1.2,0.2-15.1-7.9c-8-4.6-14.6-8.5-14.7-8.7c-0.1-0.2,3.6-10.5,8.2-23.1l8.3-22.7l-1.3-1.1c-9.2-8.3-10.6-9.6-19.5-19.5
		l-1.1-1.2l-22.3,8.2c-12.3,4.5-22.6,8.2-23,8.2c-0.6,0.1-1.8-1.9-9.1-14.5c-8-13.9-8.4-14.6-7.9-15.1c0.3-0.3,8.6-7.2,18.3-15.4
		c9.8-8.1,17.9-15,18.2-15.2c0.3-0.3,0.2-1.1-0.9-4c-2.7-7.9-4.5-14.5-5.9-21.8c-0.4-2.3-0.9-4.3-0.9-4.3c-0.1,0-5.5-1-12.1-2.2
		c-6.6-1.1-17.3-3-23.8-4.2c-6.4-1.1-11.8-2.1-12-2.1c-0.1,0-0.3-7.7-0.3-17.1c0-9.4,0.1-17.1,0.3-17.1c0.1,0,5.5-0.9,12-2.1
		c6.5-1.1,17.2-3,23.8-4.2c6.6-1.2,12.1-2.2,12.1-2.2c0,0,0.4-2,0.9-4.3c1.4-7.4,3.2-13.9,5.9-21.8c1-2.9,1.2-3.7,0.9-4
		c-0.2-0.2-8.4-7-18.2-15.2s-18-15.1-18.3-15.4c-0.5-0.5-0.2-1.2,7.9-15.1c7.3-12.6,8.5-14.6,9.1-14.5c0.4,0,10.8,3.7,23,8.2
		l22.3,8.2l1.1-1.2c8.9-9.9,10.3-11.2,19.5-19.5l1.3-1.1l-8.3-22.7c-4.6-12.5-8.3-22.9-8.2-23.1c0.1-0.2,6.7-4.1,14.7-8.7
		c13.9-8,14.6-8.4,15.1-7.9c0.3,0.3,7.1,8.5,15.2,18.2s14.9,17.9,15.2,18.2c0.5,0.6,0.7,0.5,4.2-0.7c7.1-2.5,14.5-4.5,21.9-5.9
		c2.3-0.4,4.2-0.8,4.2-0.9c0-0.1,1-5.5,2.2-12.1c1.1-6.6,3-17.3,4.2-23.8c1.1-6.4,2.1-11.8,2.1-12s7.7-0.3,17.1-0.3h17.1l1.6,9.3
		c0.9,5.1,2.8,15.9,4.2,24c1.4,8.1,2.6,14.8,2.7,14.8c0,0,2.2,0.5,4.8,1c8.1,1.6,13.3,3,21.3,5.7c2.9,1,3.7,1.2,4,0.9
		c0.2-0.2,7-8.4,15.2-18.2c8.2-9.8,15.1-18,15.4-18.3c0.5-0.5,1.2-0.2,15.1,7.9c8,4.6,14.6,8.5,14.7,8.7c0.1,0.2-5.2,14.7-14.7,40.9
		l-1.8,4.9l2.1,1.8c6.9,6,12.2,11.3,18.1,18.1l1.7,2l5.9-2.1c22.5-8.2,39.6-14.5,39.9-14.5c0.2,0,3,4.7,6.3,10.4
		c3.3,5.7,7.1,12.3,8.4,14.7c2,3.4,2.4,4.3,2.1,4.6c-0.2,0.2-8.5,7.1-18.3,15.4s-18.1,15.2-18.3,15.3c-0.3,0.3-0.2,1.1,0.9,4
		c2.7,7.8,4.8,15.6,6.1,22.6c0.4,2,0.8,3.7,1,3.7c0.1,0,7.2,1.2,15.7,2.7c8.5,1.5,19.2,3.4,23.6,4.1c4.4,0.8,8.2,1.4,8.3,1.4
		c0.2,0,0.3,7.7,0.3,17.1c0,9.4-0.1,17.1-0.3,17.1c-0.1,0-5.5,0.9-11.8,2c-6.4,1.1-17.1,3-23.8,4.2l-12.3,2.2l-0.7,3.6
		c-1.3,6.9-3.4,14.7-6.1,22.5c-1,2.9-1.2,3.7-0.9,4c0.2,0.2,8.5,7.1,18.3,15.3s18.1,15.2,18.3,15.4c0.3,0.3-0.1,1.2-2.1,4.6
		c-1.4,2.3-5.2,8.9-8.4,14.7c-3.3,5.7-6.1,10.4-6.3,10.4c-0.2,0-17.4-6.2-39.9-14.5l-5.9-2.1l-1.7,2c-5.9,6.8-11.2,12.1-18.1,18.1
		l-2.1,1.8l1.8,4.9c9.6,26.2,14.8,40.7,14.7,40.9c-0.1,0.2-6.7,4.1-14.7,8.7c-13.9,8-14.6,8.4-15.1,7.9c-0.3-0.3-7.2-8.6-15.4-18.3
		c-8.1-9.8-15-17.9-15.2-18.2c-0.3-0.3-1.1-0.2-4,0.9c-8,2.8-13.3,4.2-21.3,5.7c-2.6,0.5-4.8,1-4.8,1c-0.1,0.1-1.3,6.7-2.7,14.8
		c-1.4,8.1-3.3,18.9-4.2,24l-1.6,9.3h-17.1C3341.2,11318.3,3333.5,11318.1,3333.5,11318z M3357.1,11235.1
		c21.5-0.8,44.6-8.8,62.9-21.9c11.4-8.1,21.4-18.3,29.3-29.7c11.8-17.1,19-36.8,20.8-57.7c0.4-5.1,0.4-15.8,0-20.9
		c-3-32.9-19.1-62.9-44.9-83.5c-15.6-12.5-34.7-21-54.4-24.3c-7.8-1.3-9.5-1.5-20.3-1.5s-12.5,0.1-20.3,1.5
		c-37.3,6.3-69.9,30.4-86.9,64.4c-9.4,18.6-13.5,38-12.6,59.3c1.5,38,21.6,73.4,53.5,94.6c15.9,10.5,33.2,16.8,52.6,19.2
		c3,0.4,12.8,0.9,14.5,0.7C3351.9,11235.3,3354.5,11235.1,3357.1,11235.1z"/>
</g>
<g transform="translate(0.000000,1280.000000) scale(0.100000,-0.100000)">
	<path class="st3" d="M2391.4,11337.5c0-0.1-0.8-5-1.9-10.9c-1-5.9-2.8-15.7-3.8-21.8c-1.1-6.1-2-11.1-2-11.1c0,0-1.8-0.4-3.9-0.8
		c-6.8-1.3-13.5-3.1-20-5.4c-3.2-1.1-3.3-1.1-3.8-0.6c-0.3,0.3-6.5,7.8-13.9,16.6c-7.4,8.8-13.6,16.3-13.9,16.6
		c-0.5,0.5-1.1,0.1-13.8-7.2c-7.3-4.2-13.3-7.8-13.4-8c-0.1-0.1,3.3-9.6,7.5-21.1l7.6-20.8l-1.2-1c-8.4-7.6-9.7-8.8-17.8-17.8
		l-1-1.1l-20.4,7.5c-11.2,4.1-20.7,7.5-21.1,7.5c-0.6,0.1-1.7-1.8-8.4-13.3c-7.3-12.7-7.7-13.3-7.2-13.8c0.3-0.3,7.8-6.6,16.8-14.1
		c8.9-7.5,16.4-13.7,16.6-13.9c0.3-0.3,0.1-1-0.8-3.7c-2.5-7.2-4.1-13.2-5.4-20c-0.4-2.1-0.8-3.9-0.8-3.9c-0.1,0-5-0.9-11.1-2
		c-6.1-1-15.8-2.8-21.8-3.8c-5.9-1-10.8-1.9-10.9-1.9c-0.1,0-0.2-7-0.2-15.7s0.1-15.7,0.2-15.7c0.1,0,5-0.8,10.9-1.9
		c5.9-1,15.7-2.8,21.8-3.8c6.1-1.1,11.1-2,11.1-2c0,0,0.4-1.8,0.8-3.9c1.3-6.7,2.9-12.7,5.4-20c0.9-2.7,1.1-3.4,0.8-3.7
		c-0.2-0.2-7.7-6.4-16.6-13.9c-8.9-7.5-16.5-13.8-16.8-14.1c-0.5-0.5-0.1-1.1,7.2-13.8c6.7-11.5,7.8-13.3,8.4-13.3
		c0.3,0,9.8,3.4,21.1,7.5l20.4,7.5l1-1.1c8.2-9,9.4-10.3,17.8-17.8l1.2-1l-7.6-20.8c-4.2-11.5-7.6-20.9-7.5-21.1
		c0.1-0.1,6.1-3.7,13.4-8c12.7-7.3,13.3-7.7,13.8-7.2c0.3,0.3,6.5,7.8,13.9,16.6c7.4,8.8,13.7,16.3,13.9,16.6
		c0.5,0.5,0.6,0.5,3.8-0.6c6.5-2.3,13.3-4.1,20-5.4c2.1-0.4,3.8-0.8,3.9-0.8c0-0.1,0.9-5,2-11.1c1-6.1,2.8-15.8,3.8-21.8
		c1-5.9,1.9-10.8,1.9-10.9c0-0.1,7-0.2,15.6-0.2h15.6l1.5,8.5c0.8,4.7,2.6,14.6,3.9,22c1.3,7.4,2.4,13.5,2.4,13.6c0,0,2,0.5,4.4,0.9
		c7.4,1.5,12.2,2.7,19.5,5.3c2.7,0.9,3.4,1.1,3.7,0.8c0.2-0.2,6.4-7.7,13.9-16.6c7.5-8.9,13.8-16.5,14.1-16.8
		c0.5-0.5,1.1-0.1,13.8,7.2c7.3,4.2,13.3,7.8,13.4,8c0.1,0.2-4.7,13.5-13.5,37.4l-1.7,4.5l1.9,1.6c6.3,5.5,11.1,10.3,16.5,16.5
		l1.6,1.9l5.4-1.9c20.5-7.5,36.3-13.2,36.5-13.2c0.1,0,2.7,4.3,5.7,9.5c3,5.3,6.5,11.3,7.7,13.4c1.8,3.1,2.2,4,1.9,4.2
		c-0.2,0.2-7.7,6.5-16.8,14.1s-16.6,13.9-16.8,14c-0.3,0.3-0.1,1,0.8,3.7c2.4,7.1,4.4,14.2,5.5,20.7c0.3,1.9,0.8,3.4,0.9,3.4
		s6.6,1.1,14.4,2.5c7.8,1.4,17.5,3.1,21.6,3.8c4.1,0.7,7.5,1.3,7.6,1.3c0.1,0,0.2,7.1,0.2,15.7s-0.1,15.7-0.2,15.7s-5,0.8-10.8,1.9
		c-5.8,1-15.6,2.8-21.8,3.8l-11.2,2l-0.6,3.3c-1.2,6.4-3.1,13.5-5.5,20.6c-0.9,2.7-1.1,3.4-0.8,3.7c0.2,0.2,7.7,6.5,16.8,14
		s16.6,13.9,16.8,14.1c0.3,0.3-0.1,1.1-1.9,4.2c-1.2,2.1-4.7,8.2-7.7,13.4c-3,5.2-5.6,9.5-5.7,9.5c-0.2,0-15.9-5.7-36.5-13.2
		l-5.4-1.9l-1.6,1.9c-5.4,6.2-10.2,11-16.5,16.5l-1.9,1.6l1.7,4.5c8.8,23.9,13.5,37.2,13.5,37.4c-0.1,0.1-6.1,3.7-13.4,8
		c-12.7,7.3-13.3,7.7-13.8,7.2c-0.3-0.3-6.6-7.8-14.1-16.8c-7.5-8.9-13.7-16.4-13.9-16.6c-0.3-0.3-1-0.1-3.7,0.8
		c-7.3,2.5-12.2,3.8-19.5,5.3c-2.4,0.5-4.4,0.9-4.4,0.9c-0.1,0.1-1.2,6.2-2.4,13.6c-1.3,7.4-3,17.3-3.9,22l-1.5,8.5H2407
		C2398.4,11337.7,2391.4,11337.6,2391.4,11337.5z M2413,11261.6c19.7-0.7,40.8-8,57.6-20c10.4-7.4,19.6-16.7,26.8-27.2
		c10.8-15.6,17.4-33.7,19.1-52.8c0.4-4.7,0.4-14.5,0-19.1c-2.7-30.1-17.4-57.5-41.1-76.4c-14.3-11.4-31.8-19.2-49.8-22.3
		c-7.1-1.2-8.7-1.3-18.6-1.3c-9.9,0-11.4,0.1-18.6,1.3c-34.1,5.8-63.9,27.8-79.5,58.9c-8.6,17-12.3,34.8-11.5,54.3
		c1.4,34.8,19.7,67.2,49,86.5c14.6,9.6,30.3,15.4,48.1,17.6c2.8,0.3,11.8,0.8,13.3,0.7C2408.3,11261.8,2410.6,11261.7,2413,11261.6z
		"/>
</g>
<circle class="st1" cx="280.6" cy="246.6" r="9.4"/>
<circle class="st2" cx="240.9" cy="164.7" r="7.9"/>
<circle class="st2" cx="335.1" cy="168" r="7.9"/>
<circle class="st2" cx="347.6" cy="229.3" r="5.1"/>
<circle class="st2" cx="196.7" cy="169.9" r="5.1"/>
<circle class="st2" cx="181.3" cy="193.3" r="5.1"/>
<path class="st7" d="M237.2,76.3c-7-8.1-19.3-9-27.4-2c-6.8,5.8-8.5,15.3-4.9,23l-15,12.6c-1.8,1.5-2.1,4.3-0.5,6.1l0.4,0.5
	c1.5,1.8,4.3,2.1,6.1,0.5l13.2-11.1l1.7-1.5c7.1,5.4,17.3,5.2,24.3-0.8C243.3,96.7,244.2,84.5,237.2,76.3z"/>
<path class="st2" d="M198.1,113.6l-1.5,1.3l-0.8,0.6c-0.1,0.1-0.2,0.2-0.4,0.3c-0.1,0.1-0.3,0.2-0.4,0.3c-0.5,0.3-1.2,0.5-1.8,0.5
	c-1.3,0.1-2.6-0.4-3.5-1.3c0.8,1.1,2.1,1.8,3.5,1.7c0.7,0,1.4-0.2,2-0.5c0.1-0.1,0.3-0.2,0.4-0.3c0.1-0.1,0.3-0.2,0.4-0.3l0.8-0.6
	l1.5-1.3c0.5-0.4,1-0.9,1.5-1.3c1-0.9,2-1.8,2.9-2.7c-1.1,0.8-2.1,1.6-3.1,2.4C199.1,112.7,198.6,113.2,198.1,113.6z"/>
<path class="st8" d="M204.9,97.4l-2.1,1.7c1.8,2.6,3.7,5,6.2,7l1.7-1.5c-1.1-0.8-2.1-1.8-3.1-2.9C206.6,100.4,205.7,98.9,204.9,97.4
	z"/>
<path class="st2" d="M228.1,105.9c-1.1,0.3-2.3,0.6-3.4,0.7c-1.2,0.1-2.3,0.2-3.5,0.1c-2.3-0.2-4.6-0.8-6.7-1.8
	c-2.1-1-4-2.4-5.6-4.2c0.7,0.9,1.6,1.8,2.5,2.5c0.9,0.8,1.9,1.4,3,2c1.1,0.6,2.2,1,3.3,1.3c1.1,0.3,2.3,0.5,3.5,0.6
	c1.2,0.1,2.4,0.1,3.6-0.1c1.2-0.2,2.4-0.4,3.5-0.8c1.1-0.4,2.2-0.9,3.2-1.5c1-0.6,2-1.3,2.8-2.1
	C232.4,104.1,230.3,105.2,228.1,105.9z"/>
<path class="st2" d="M216.9,72.1c1.1-0.3,2.3-0.6,3.4-0.7c1.2-0.1,2.3-0.2,3.5-0.1c2.3,0.2,4.6,0.8,6.7,1.8c2.1,1,4,2.4,5.6,4.2
	c-0.7-0.9-1.6-1.8-2.5-2.5c-0.9-0.8-1.9-1.4-3-2c-1.1-0.6-2.2-1-3.3-1.3c-1.1-0.3-2.3-0.5-3.5-0.6c-1.2-0.1-2.4-0.1-3.6,0.1
	c-1.2,0.2-2.4,0.4-3.5,0.8c-1.1,0.4-2.2,0.9-3.2,1.5c-1,0.6-2,1.3-2.8,2.1C212.6,73.9,214.7,72.8,216.9,72.1z"/>
<path class="st9" d="M211.7,97.9c4.9,4.7,12.6,5,17.9,0.5c5.6-4.8,6.2-13.2,1.4-18.7c-2.5-2.9-5.9-4.4-9.5-4.6
	c-2.9,0.2-5.7,1.3-8.1,3.4C207.6,83.4,206.9,92,211.7,97.9z M214.4,84.5l1.6,0.6c0.5-0.8,1.1-1.5,1.8-2l-0.8-1.6l2.9-1.4l0.8,1.6
	c0.9-0.2,1.8-0.3,2.7-0.2l0.6-1.6l3,1.1l-0.6,1.6c0.8,0.5,1.5,1.1,2,1.8l1.6-0.8l1.4,2.9l-1.6,0.8c0.2,0.9,0.3,1.8,0.2,2.7l1.6,0.6
	l-1.1,3L229,93c-0.5,0.8-1.1,1.5-1.8,2l0.8,1.6l-2.9,1.4l-0.8-1.6c-0.9,0.2-1.8,0.3-2.7,0.2l-0.6,1.6l-3-1.1l0.6-1.6
	c-0.8-0.5-1.5-1.1-2-1.8l-1.6,0.8l-1.4-2.9l1.6-0.8c-0.2-0.9-0.3-1.8-0.2-2.7l-1.6-0.6L214.4,84.5z"/>
<path class="st9" d="M221.2,92.9c2.1,0.7,4.5-0.4,5.2-2.5c0.7-2.1-0.4-4.5-2.5-5.2c-2.1-0.7-4.5,0.4-5.2,2.5
	C217.9,89.8,219,92.2,221.2,92.9z"/>
<path class="st10" d="M231,79.7c4.8,5.6,4.2,13.9-1.4,18.7c-5.2,4.5-13,4.2-17.9-0.5l0,0c0.1,0.1,0.2,0.2,0.2,0.3
	c1.1,1.3,2.4,2.3,3.8,3.1c0.6,0.3,1.2,0.6,1.8,0.9c0.6,0.2,1.3,0.4,1.9,0.6c0.4,0.1,0.9,0.2,1.3,0.2c1.1,0.1,2.2,0.1,3.4,0
	c2.2-0.3,4.4-1.1,6.4-2.4c0.4-0.3,0.8-0.6,1.1-0.9c5.9-5,6.5-13.9,1.5-19.7c-0.1-0.2-0.3-0.3-0.4-0.5c0,0-0.1-0.1-0.1-0.1
	c-0.1-0.1-0.3-0.3-0.4-0.4c0,0-0.1-0.1-0.1-0.1c-0.2-0.1-0.3-0.3-0.5-0.4l0,0c-0.2-0.1-0.3-0.3-0.5-0.4c0,0-0.1-0.1-0.1-0.1
	c-0.2-0.1-0.3-0.2-0.5-0.3c0,0-0.1-0.1-0.1-0.1c-0.2-0.1-0.3-0.2-0.5-0.3c0,0,0,0-0.1,0c-0.2-0.1-0.3-0.2-0.5-0.3c0,0-0.1,0-0.1-0.1
	c-0.2-0.1-0.3-0.2-0.5-0.3c0,0-0.1,0-0.1-0.1c-0.2-0.1-0.3-0.2-0.5-0.2c0,0-0.1,0-0.1,0c-0.1-0.1-0.3-0.1-0.4-0.2
	c-0.1,0-0.1,0-0.2-0.1c-0.2-0.1-0.3-0.1-0.5-0.2c-0.1,0-0.1,0-0.2-0.1c-0.2,0-0.3-0.1-0.5-0.1c-0.1,0-0.1,0-0.2-0.1
	c-0.1,0-0.3-0.1-0.4-0.1c-0.1,0-0.1,0-0.2,0c-0.2,0-0.3-0.1-0.5-0.1c-0.1,0-0.2,0-0.2,0c-0.1,0-0.3,0-0.4-0.1c-0.1,0-0.2,0-0.3,0
	c-0.1,0-0.2,0-0.4,0c-0.1,0-0.2,0-0.2,0c-0.2,0-0.3,0-0.5,0c-0.1,0-0.2,0-0.3,0c-0.1,0-0.3,0-0.4,0c-0.1,0-0.2,0-0.3,0
	c-0.1,0-0.2,0-0.3,0c-0.1,0-0.2,0-0.2,0l0,0C225,75.2,228.5,76.8,231,79.7z"/>
<path class="st2" d="M223.6,81.9L223.6,81.9C223.6,81.9,223.7,81.9,223.6,81.9c0.3-0.5,0.4-1,0.5-1.6c-0.2,0.5-0.4,0.9-0.6,1.4
	c-0.3,0-0.6-0.1-0.9-0.1c-0.2,0-0.3,0-0.5,0c-0.2,0-0.3,0.1-0.5,0.1c0.3,0,0.6,0,0.9,0C223,81.8,223.3,81.8,223.6,81.9z"/>
<path class="st2" d="M219,95.2L219,95.2c-0.3-0.2-0.5-0.3-0.8-0.5c-0.3-0.2-0.5-0.4-0.7-0.6c0.1,0.1,0.2,0.3,0.3,0.4
	c0.1,0.1,0.2,0.2,0.3,0.3c0.2,0.2,0.5,0.3,0.7,0.5c-0.2,0.5-0.3,1-0.4,1.4C218.6,96.3,218.8,95.8,219,95.2
	C219,95.3,219,95.3,219,95.2z"/>
<path class="st2" d="M215.2,88.7c0,0.2,0,0.3,0,0.5c0,0.2,0.1,0.3,0.1,0.5c0-0.3,0-0.6,0-0.9c0-0.3,0-0.6,0.1-0.9l0,0
	c0,0,0-0.1-0.1-0.1c-0.5-0.2-1-0.3-1.5-0.4c0.5,0.2,0.9,0.4,1.4,0.6C215.2,88.1,215.2,88.4,215.2,88.7z"/>
<path class="st2" d="M228.4,93.3c0.2-0.2,0.3-0.5,0.5-0.7c0.5,0.2,1,0.3,1.4,0.4c-0.5-0.2-1-0.4-1.4-0.6c0,0-0.1,0-0.1,0l0,0
	c-0.2,0.3-0.3,0.5-0.5,0.8c-0.2,0.3-0.4,0.5-0.6,0.7c0.1-0.1,0.3-0.2,0.4-0.3C228.2,93.5,228.3,93.4,228.4,93.3z"/>
<path class="st2" d="M218.3,83.2L218.3,83.2C218.3,83.2,218.3,83.1,218.3,83.2c-0.2-0.6-0.4-1-0.7-1.5c0.2,0.5,0.4,0.9,0.6,1.4
	c-0.2,0.2-0.5,0.4-0.7,0.6c-0.1,0.1-0.2,0.2-0.3,0.4c-0.1,0.1-0.2,0.3-0.2,0.4c0.2-0.2,0.4-0.5,0.6-0.7
	C217.8,83.6,218,83.4,218.3,83.2z"/>
<path class="st2" d="M224.4,95.9L224.4,95.9c-0.3,0.1-0.6,0.1-0.9,0.2c-0.3,0.1-0.6,0.1-0.9,0.1c0.2,0,0.3,0,0.5,0.1
	c0.2,0,0.3,0,0.5,0c0.3,0,0.6-0.1,0.9-0.2c0.2,0.4,0.5,0.9,0.7,1.3C224.9,96.9,224.7,96.4,224.4,95.9
	C224.5,95.9,224.5,95.9,224.4,95.9z"/>
<path class="st2" d="M229.4,87c0.1,0.3,0.1,0.6,0.2,0.9c0.1,0.3,0.1,0.6,0.1,0.9c0-0.2,0-0.3,0.1-0.5c0-0.2,0-0.3,0-0.5
	c0-0.3-0.1-0.6-0.2-0.9c0.4-0.2,0.9-0.5,1.3-0.7C230.4,86.5,229.9,86.7,229.4,87C229.4,86.9,229.4,87,229.4,87L229.4,87z"/>
<path class="st2" d="M220.9,93.5c0.2,0.1,0.3,0.1,0.5,0.1c1.1,0.2,2.2,0.1,3.1-0.4c1.1-0.6,2-1.5,2.4-2.7c0.4-1.2,0.3-2.5-0.2-3.6
	c-0.6-1.1-1.5-2-2.7-2.4c-2.5-0.9-5.2,0.5-6.1,2.9c-0.4,1.2-0.3,2.5,0.2,3.6C218.8,92.3,219.7,93.1,220.9,93.5z M218.2,87.5
	c0.4-1.2,1.2-2.1,2.3-2.6c1-0.5,2-0.6,3-0.3c0.2,0,0.3,0.1,0.5,0.1c1.2,0.4,2.1,1.2,2.6,2.3c0.5,1.1,0.6,2.4,0.2,3.5
	c-0.4,1.2-1.2,2.1-2.3,2.6c-1.1,0.5-2.4,0.6-3.5,0.2c-1.2-0.4-2.1-1.2-2.6-2.3C217.8,89.9,217.7,88.7,218.2,87.5z"/>
<polygon class="st2" points="221.3,247.9 227.2,259.9 240.4,261.8 230.8,271.1 233.1,284.2 221.3,278 209.5,284.2 211.7,271.1 
	202.2,261.8 215.4,259.9 "/>
<g>
	<rect x="285.6" y="42.6" class="st11" width="17.6" height="7.7"/>
	<rect x="307.4" y="42.1" class="st11" width="17.6" height="7.7"/>
	<rect x="331.4" y="41.7" class="st11" width="17.6" height="7.7"/>
	
		<rect x="336.6" y="47.3" transform="matrix(-1.836970e-16 1 -1 -1.836970e-16 396.5 -294.2143)" class="st11" width="17.6" height="7.7"/>
	
		<rect x="337" y="69.6" transform="matrix(-1.836970e-16 1 -1 -1.836970e-16 419.2143 -272.3571)" class="st11" width="17.6" height="7.7"/>
	<polygon class="st11" points="356.1,83 345.4,93 335.5,82.4 	"/>
</g>
<g>
	<rect x="285" y="43.5" class="st11" width="17.6" height="7.7"/>
	<rect x="306.9" y="43.1" class="st11" width="17.6" height="7.7"/>
	<rect x="330.9" y="42.6" class="st11" width="17.6" height="7.7"/>
	
		<rect x="336" y="48.2" transform="matrix(-1.836970e-16 1 -1 -1.836970e-16 396.8758 -292.7211)" class="st11" width="17.6" height="7.7"/>
	
		<rect x="336.4" y="70.5" transform="matrix(-1.836970e-16 1 -1 -1.836970e-16 419.59 -270.8639)" class="st11" width="17.6" height="7.7"/>
	<polygon class="st11" points="355.6,83.9 344.8,93.9 334.9,83.3 	"/>
</g>
<g>
	
		<rect x="90.7" y="240.3" transform="matrix(-0.9999 1.016924e-02 -1.016924e-02 -0.9999 201.4321 487.3706)" class="st12" width="17.6" height="7.7"/>
	
		<rect x="68.8" y="241" transform="matrix(-0.9999 1.016924e-02 -1.016924e-02 -0.9999 157.7365 488.8945)" class="st12" width="17.6" height="7.7"/>
	
		<rect x="44.8" y="241.7" transform="matrix(-0.9999 1.016924e-02 -1.016924e-02 -0.9999 109.7558 490.4836)" class="st12" width="17.6" height="7.7"/>
	
		<rect x="39.6" y="236.1" transform="matrix(-1.016924e-02 -0.9999 0.9999 -1.016924e-02 -191.0655 290.8718)" class="st12" width="17.6" height="7.7"/>
	
		<rect x="39" y="213.9" transform="matrix(-1.016924e-02 -0.9999 0.9999 -1.016924e-02 -169.4482 267.7099)" class="st12" width="17.6" height="7.7"/>
	<polygon class="st12" points="37.3,208.3 48,198.2 58,208.7 	"/>
</g>
<g>
	<path class="st2" d="M8,148.3v-16.4h6.4c2.8,0,4.8,0.8,6.2,2.5s2.1,3.5,2.1,5.7c0,2.5-0.7,4.5-2.2,6c-1.5,1.5-3.4,2.3-5.7,2.3H8z
		 M13,144.5h1.3c0.8,0,1.5-0.4,2.1-1.2c0.6-0.8,0.9-1.9,0.9-3.3c0-1.2-0.3-2.2-0.8-3.1c-0.5-0.9-1.2-1.3-2.2-1.3H13V144.5z"/>
	<path class="st2" d="M29.4,131.4v3.8h-4.8v-3.8H29.4z M29.4,136.1v12.2h-4.8v-12.2H29.4z"/>
	<path class="st2" d="M43.9,148.3h-4.8v-7.7c0-0.6-0.1-1-0.3-1.2c-0.2-0.2-0.4-0.3-0.7-0.3c-0.9,0-1.3,0.6-1.3,1.8v7.4h-4.8v-12.2
		h4.5v1.7c0.7-1.3,1.8-2,3.5-2c0.9,0,1.6,0.2,2.3,0.5c0.6,0.3,1.1,0.8,1.3,1.3c0.3,0.5,0.4,1.5,0.4,2.8V148.3z"/>
	<path class="st2" d="M58.7,148.3h-4.6c-0.1-0.5-0.2-1.1-0.2-1.7c-0.9,1.3-2.2,2-3.9,2c-1.4,0-2.5-0.4-3.2-1.1
		c-0.7-0.7-1.1-1.6-1.1-2.5c0-1.3,0.6-2.3,1.8-3.1s3.3-1.3,6.3-1.4v-0.3c0-0.5-0.1-0.9-0.4-1.1c-0.2-0.2-0.6-0.3-1.1-0.3
		c-1.1,0-1.7,0.4-1.9,1.3l-4.4-0.4c0.6-2.6,2.8-3.8,6.4-3.8c1,0,1.9,0.1,2.7,0.3c0.8,0.2,1.5,0.5,2,0.9c0.5,0.4,0.8,0.9,1,1.3
		s0.2,1.4,0.2,2.7v4.9C58.3,146.8,58.5,147.6,58.7,148.3z M53.7,142.6c-2,0.2-3.1,0.9-3.1,2c0,0.7,0.4,1.1,1.2,1.1
		c0.5,0,1-0.2,1.3-0.5c0.4-0.3,0.5-1,0.5-2V142.6z"/>
	<path class="st2" d="M78.9,131.9v16.4h-4.7v-11.7l-3,11.7h-3.2l-3.2-11.7v11.7H61v-16.4h6.6l2.4,8.7l2.3-8.7H78.9z"/>
	<path class="st2" d="M93,136.1l-4.8,13.3c-0.4,1-0.9,1.8-1.6,2.4s-1.8,0.8-3.2,0.8c-0.3,0-1.1,0-2.4-0.1V149
		c0.6,0.1,1.2,0.1,1.7,0.1c1.4,0,2.1-0.3,2.1-0.9c0-0.2-0.1-0.5-0.2-0.8l-4.4-11.3h5.1l2,6.5l2.1-6.5H93z"/>
	<path class="st2" d="M103.4,142l4.6,0.3c-0.2,2-1,3.6-2.2,4.6c-1.3,1.1-2.8,1.6-4.7,1.6c-2.2,0-4-0.7-5.4-2.2s-2.1-3.5-2.1-6.1
		c0-2.6,0.6-4.7,1.9-6.2c1.3-1.6,3.1-2.4,5.4-2.4c2.2,0,3.8,0.6,5,1.8c1.2,1.2,1.8,2.8,2,4.8l-4.7,0.3c0-1.1-0.2-1.9-0.6-2.4
		s-0.9-0.7-1.5-0.7c-1.6,0-2.4,1.6-2.4,4.8c0,1.8,0.2,3,0.6,3.6c0.4,0.6,1,1,1.7,1C102.5,144.7,103.2,143.8,103.4,142z"/>
	<path class="st2" d="M115.7,148.6c-2,0-3.6-0.6-4.8-1.9c-1.2-1.3-1.8-2.7-1.8-4.4c0-1.8,0.6-3.4,1.9-4.6c1.2-1.2,2.9-1.8,4.9-1.8
		c2,0,3.6,0.6,4.9,1.8c1.2,1.2,1.8,2.7,1.8,4.5c0,1.8-0.6,3.4-1.9,4.6C119.4,147.9,117.7,148.6,115.7,148.6z M115.7,145.6
		c0.7,0,1.2-0.4,1.4-1.2c0.2-0.8,0.2-1.6,0.2-2.4c0-1.1-0.1-2-0.3-2.5c-0.2-0.5-0.6-0.8-1.3-0.8c-0.6,0-1,0.3-1.2,0.8
		s-0.4,1.4-0.4,2.6c0,1.4,0.1,2.3,0.4,2.8C114.8,145.4,115.2,145.6,115.7,145.6z"/>
	<path class="st2" d="M136.3,148.3h-4.5v-1.6c-0.7,1.3-1.8,1.9-3.3,1.9c-1.4,0-2.6-0.6-3.4-1.7c-0.9-1.1-1.3-2.7-1.3-4.8
		c0-2,0.4-3.5,1.3-4.7c0.9-1.2,2-1.7,3.5-1.7c1.2,0,2.2,0.5,3,1.4v-5.2h4.7V148.3z M131.5,140.4c0-1.1-0.5-1.6-1.4-1.6
		c-0.6,0-1,0.3-1.2,1c-0.2,0.7-0.3,1.6-0.3,2.6c0,2,0.5,3,1.5,3c0.4,0,0.7-0.2,1-0.5c0.3-0.3,0.4-0.8,0.4-1.4V140.4z"/>
	<path class="st2" d="M146.9,143.9l4.5,0.3c-0.3,1.2-0.9,2.2-2,3.1c-1.1,0.8-2.6,1.3-4.4,1.3c-2.1,0-3.7-0.6-4.9-1.8
		c-1.2-1.2-1.8-2.7-1.8-4.4c0-1.8,0.6-3.4,1.8-4.6c1.2-1.3,2.8-1.9,4.9-1.9c2,0,3.5,0.6,4.7,1.8s1.8,2.8,1.8,4.9c0,0.2,0,0.4,0,0.7
		h-8.2c0,0.8,0.2,1.3,0.4,1.7c0.3,0.4,0.7,0.6,1.5,0.6C146.1,145.4,146.7,144.9,146.9,143.9z M146.6,140.7c0-0.8-0.2-1.4-0.5-1.7
		c-0.3-0.3-0.7-0.4-1.2-0.4c-1.1,0-1.7,0.7-1.7,2.1H146.6z"/>
</g>
<g>
	<path class="st2" d="M13.9,156.8l2.7,0.2c-0.1,1.2-0.6,2.1-1.3,2.8c-0.8,0.6-1.7,1-2.8,1c-1.3,0-2.4-0.4-3.2-1.3
		c-0.8-0.9-1.2-2.1-1.2-3.6c0-1.5,0.4-2.8,1.2-3.7c0.8-0.9,1.8-1.4,3.2-1.4c1.3,0,2.3,0.4,3,1.1c0.7,0.7,1.1,1.7,1.2,2.8l-2.8,0.2
		c0-0.7-0.1-1.1-0.4-1.4c-0.3-0.3-0.5-0.4-0.9-0.4c-0.9,0-1.4,0.9-1.4,2.8c0,1.1,0.1,1.8,0.4,2.2c0.2,0.4,0.6,0.6,1,0.6
		C13.4,158.4,13.8,157.9,13.9,156.8z"/>
	<path class="st2" d="M25,160.5h-2.7c-0.1-0.3-0.1-0.6-0.1-1c-0.5,0.8-1.3,1.2-2.3,1.2c-0.9,0-1.5-0.2-1.9-0.7
		c-0.4-0.4-0.6-0.9-0.6-1.5c0-0.8,0.3-1.4,1-1.9c0.7-0.5,1.9-0.8,3.7-0.9v-0.2c0-0.3-0.1-0.5-0.2-0.6c-0.1-0.1-0.4-0.2-0.6-0.2
		c-0.7,0-1,0.3-1.1,0.8l-2.6-0.2c0.4-1.5,1.6-2.3,3.8-2.3c0.6,0,1.1,0.1,1.6,0.2c0.5,0.1,0.9,0.3,1.2,0.5c0.3,0.2,0.5,0.5,0.6,0.8
		s0.1,0.8,0.1,1.6v2.9C24.8,159.6,24.9,160.1,25,160.5z M22,157.1c-1.2,0.1-1.8,0.5-1.8,1.2c0,0.4,0.2,0.7,0.7,0.7
		c0.3,0,0.6-0.1,0.8-0.3c0.2-0.2,0.3-0.6,0.3-1.2V157.1z"/>
	<path class="st2" d="M33.4,160.5h-2.7v-1c-0.4,0.7-1,1.1-2,1.1c-0.8,0-1.5-0.3-2-1s-0.8-1.6-0.8-2.9c0-1.2,0.3-2.1,0.8-2.8
		s1.2-1,2.1-1c0.7,0,1.3,0.3,1.8,0.8v-3.1h2.8V160.5z M30.5,155.8c0-0.7-0.3-1-0.8-1c-0.4,0-0.6,0.2-0.7,0.6
		c-0.1,0.4-0.2,0.9-0.2,1.5c0,1.2,0.3,1.8,0.9,1.8c0.2,0,0.4-0.1,0.6-0.3s0.2-0.5,0.2-0.9V155.8z"/>
	<path class="st2" d="M42.2,160.5h-2.7c-0.1-0.3-0.1-0.6-0.1-1c-0.5,0.8-1.3,1.2-2.3,1.2c-0.9,0-1.5-0.2-1.9-0.7
		c-0.4-0.4-0.6-0.9-0.6-1.5c0-0.8,0.3-1.4,1-1.9c0.7-0.5,1.9-0.8,3.7-0.9v-0.2c0-0.3-0.1-0.5-0.2-0.6c-0.1-0.1-0.4-0.2-0.6-0.2
		c-0.7,0-1,0.3-1.1,0.8l-2.6-0.2c0.4-1.5,1.6-2.3,3.8-2.3c0.6,0,1.1,0.1,1.6,0.2c0.5,0.1,0.9,0.3,1.2,0.5c0.3,0.2,0.5,0.5,0.6,0.8
		s0.1,0.8,0.1,1.6v2.9C42,159.6,42,160.1,42.2,160.5z M39.2,157.1c-1.2,0.1-1.8,0.5-1.8,1.2c0,0.4,0.2,0.7,0.7,0.7
		c0.3,0,0.6-0.1,0.8-0.3c0.2-0.2,0.3-0.6,0.3-1.2V157.1z"/>
	<path class="st2" d="M51.9,157.9l2.7,0.2c-0.2,0.7-0.6,1.3-1.2,1.8s-1.5,0.8-2.6,0.8c-1.2,0-2.2-0.4-2.9-1.1
		c-0.7-0.7-1.1-1.6-1.1-2.6c0-1.1,0.4-2,1.1-2.8c0.7-0.7,1.7-1.1,2.9-1.1c1.2,0,2.1,0.4,2.8,1.1c0.7,0.7,1.1,1.7,1.1,2.9
		c0,0.1,0,0.2,0,0.4h-4.9c0,0.5,0.1,0.8,0.2,1c0.2,0.2,0.4,0.3,0.9,0.3C51.4,158.8,51.8,158.5,51.9,157.9z M51.7,156
		c0-0.5-0.1-0.8-0.3-1c-0.2-0.2-0.4-0.3-0.7-0.3c-0.7,0-1,0.4-1,1.2H51.7z"/>
	<path class="st2" d="M55.1,158.4l2.3-0.3c0.1,0.5,0.6,0.8,1.5,0.8c0.7,0,1.1-0.1,1.1-0.4c0-0.1-0.1-0.2-0.2-0.3s-0.5-0.1-1-0.2
		c-1.5-0.2-2.4-0.5-2.8-1s-0.6-0.9-0.6-1.5c0-0.7,0.3-1.3,0.9-1.8s1.4-0.7,2.4-0.7c1.8,0,2.9,0.6,3.4,1.9l-2.2,0.4
		c-0.2-0.4-0.6-0.6-1.3-0.6c-0.3,0-0.5,0-0.7,0.1c-0.2,0.1-0.2,0.2-0.2,0.2c0,0.2,0.2,0.4,0.7,0.4c1.2,0.1,2,0.3,2.4,0.4
		c0.4,0.1,0.8,0.4,1.1,0.8s0.5,0.8,0.5,1.3c0,0.8-0.3,1.4-1,1.9c-0.7,0.5-1.6,0.7-2.7,0.7C56.7,160.6,55.5,159.9,55.1,158.4z"/>
	<path class="st2" d="M66.5,155.1v5.4h-2.7v-5.4h-1.1v-1.9h1.1c0-0.6,0-1,0.1-1.3c0.1-0.3,0.2-0.6,0.4-0.8c0.2-0.3,0.5-0.5,0.8-0.6
		c0.4-0.1,0.8-0.2,1.4-0.2c0.6,0,1.3,0.1,1.8,0.2v1.9c-0.5-0.1-0.8-0.1-1-0.1s-0.4,0-0.6,0.1c-0.2,0.1-0.3,0.3-0.3,0.7v0.3h1.9v1.9
		H66.5z"/>
	<path class="st2" d="M76.3,153.2v7.3h-2.6v-1.2c-0.4,0.9-1.1,1.3-2.3,1.3c-0.7,0-1.2-0.2-1.6-0.6s-0.6-0.9-0.6-1.6v-5.2H72v4.6
		c0,0.3,0,0.5,0.1,0.6c0.1,0.1,0.2,0.2,0.5,0.2c0.2,0,0.4-0.1,0.6-0.3c0.2-0.2,0.2-0.4,0.2-0.7v-4.4H76.3z"/>
	<path class="st2" d="M82.6,157.9l2.7,0.2c-0.2,0.7-0.6,1.3-1.2,1.8s-1.5,0.8-2.6,0.8c-1.2,0-2.2-0.4-2.9-1.1
		c-0.7-0.7-1.1-1.6-1.1-2.6c0-1.1,0.4-2,1.1-2.8c0.7-0.7,1.7-1.1,2.9-1.1c1.2,0,2.1,0.4,2.8,1.1c0.7,0.7,1.1,1.7,1.1,2.9
		c0,0.1,0,0.2,0,0.4h-4.9c0,0.5,0.1,0.8,0.2,1c0.2,0.2,0.4,0.3,0.9,0.3C82.1,158.8,82.5,158.5,82.6,157.9z M82.4,156
		c0-0.5-0.1-0.8-0.3-1c-0.2-0.2-0.4-0.3-0.7-0.3c-0.7,0-1,0.4-1,1.2H82.4z"/>
	<path class="st2" d="M89.1,160.5h-2.7v-7.3h2.4v1.5c0.3-1.1,0.9-1.6,1.9-1.6c0.1,0,0.2,0,0.4,0v2.5c-0.2,0-0.4-0.1-0.5-0.1
		c-0.9,0-1.4,0.5-1.4,1.6V160.5z"/>
	<path class="st2" d="M97.8,158.7v1.8h-6.4v-1.6l3.1-3.9c-0.4,0-0.6,0-0.7,0h-2.1v-1.8h6v1.5l-3.1,3.9l0.4,0c0.1,0,0.1,0,0.2,0H97.8
		z"/>
	<path class="st2" d="M102.4,160.6c-1.2,0-2.2-0.4-2.9-1.1c-0.7-0.8-1.1-1.6-1.1-2.6c0-1.1,0.4-2,1.1-2.7s1.7-1.1,2.9-1.1
		c1.2,0,2.2,0.4,2.9,1.1s1.1,1.6,1.1,2.7c0,1.1-0.4,2-1.1,2.7C104.6,160.3,103.6,160.6,102.4,160.6z M102.4,158.9
		c0.4,0,0.7-0.2,0.8-0.7c0.1-0.5,0.1-0.9,0.1-1.4c0-0.7-0.1-1.2-0.2-1.5c-0.1-0.3-0.4-0.5-0.7-0.5c-0.3,0-0.6,0.2-0.7,0.5
		c-0.2,0.3-0.2,0.8-0.2,1.5c0,0.8,0.1,1.4,0.2,1.7S102.1,158.9,102.4,158.9z"/>
	<path class="st2" d="M115.6,157.6l2.4,0.2c-0.1,0.8-0.5,1.5-1.1,2.1c-0.6,0.5-1.4,0.8-2.4,0.8c-1.1,0-2-0.3-2.7-1
		c-0.7-0.7-1-1.6-1-2.7c0-1.1,0.3-2,1-2.8c0.7-0.7,1.6-1.1,2.7-1.1c1,0,1.8,0.3,2.4,0.8c0.6,0.5,1,1.2,1.1,2.1l-2.5,0.2
		c-0.1-0.8-0.4-1.2-0.9-1.2c-0.3,0-0.5,0.1-0.7,0.4c-0.1,0.3-0.2,0.8-0.2,1.5c0,0.6,0.1,1,0.2,1.3c0.1,0.3,0.4,0.4,0.7,0.4
		C115.2,158.6,115.5,158.3,115.6,157.6z"/>
	<path class="st2" d="M125.9,153.2v7.3h-2.6v-1.2c-0.4,0.9-1.1,1.3-2.3,1.3c-0.7,0-1.2-0.2-1.6-0.6s-0.6-0.9-0.6-1.6v-5.2h2.9v4.6
		c0,0.3,0,0.5,0.1,0.6c0.1,0.1,0.2,0.2,0.5,0.2c0.2,0,0.4-0.1,0.6-0.3c0.2-0.2,0.2-0.4,0.2-0.7v-4.4H125.9z"/>
	<path class="st2" d="M132.2,157.9l2.7,0.2c-0.2,0.7-0.6,1.3-1.2,1.8s-1.5,0.8-2.6,0.8c-1.2,0-2.2-0.4-2.9-1.1
		c-0.7-0.7-1.1-1.6-1.1-2.6c0-1.1,0.4-2,1.1-2.8c0.7-0.7,1.7-1.1,2.9-1.1c1.2,0,2.1,0.4,2.8,1.1c0.7,0.7,1.1,1.7,1.1,2.9
		c0,0.1,0,0.2,0,0.4H130c0,0.5,0.1,0.8,0.2,1c0.2,0.2,0.4,0.3,0.9,0.3C131.8,158.8,132.1,158.5,132.2,157.9z M132,156
		c0-0.5-0.1-0.8-0.3-1c-0.2-0.2-0.4-0.3-0.7-0.3c-0.7,0-1,0.4-1,1.2H132z"/>
	<path class="st2" d="M143.1,160.5h-2.9v-4.6c0-0.4-0.1-0.6-0.2-0.7c-0.1-0.1-0.3-0.2-0.4-0.2c-0.5,0-0.8,0.4-0.8,1.1v4.4H136v-7.3
		h2.6v1c0.4-0.8,1.1-1.2,2.1-1.2c0.5,0,1,0.1,1.3,0.3c0.4,0.2,0.6,0.5,0.8,0.8c0.2,0.3,0.2,0.9,0.2,1.7V160.5z"/>
	<path class="st2" d="M149.1,153.2v1.9h-1.5v2.7c0,0.4,0.1,0.6,0.2,0.7c0.1,0.1,0.3,0.1,0.4,0.1c0.2,0,0.5,0,0.8-0.1v2
		c-0.6,0.1-1.1,0.2-1.7,0.2c-0.9,0-1.5-0.2-1.9-0.6c-0.4-0.4-0.6-1-0.6-1.8l0-0.9v-2.3h-1.1v-1.9h1.1l0-2.4l2.7,0v2.4H149.1z"/>
	<path class="st2" d="M157.5,160.5h-2.7c-0.1-0.3-0.1-0.6-0.1-1c-0.5,0.8-1.3,1.2-2.3,1.2c-0.9,0-1.5-0.2-1.9-0.7
		c-0.4-0.4-0.6-0.9-0.6-1.5c0-0.8,0.3-1.4,1-1.9c0.7-0.5,1.9-0.8,3.7-0.9v-0.2c0-0.3-0.1-0.5-0.2-0.6c-0.1-0.1-0.4-0.2-0.6-0.2
		c-0.7,0-1,0.3-1.1,0.8l-2.6-0.2c0.4-1.5,1.6-2.3,3.8-2.3c0.6,0,1.1,0.1,1.6,0.2c0.5,0.1,0.9,0.3,1.2,0.5c0.3,0.2,0.5,0.5,0.6,0.8
		s0.1,0.8,0.1,1.6v2.9C157.3,159.6,157.4,160.1,157.5,160.5z M154.5,157.1c-1.2,0.1-1.8,0.5-1.8,1.2c0,0.4,0.2,0.7,0.7,0.7
		c0.3,0,0.6-0.1,0.8-0.3c0.2-0.2,0.3-0.6,0.3-1.2V157.1z"/>
</g>
</svg>
