<svg width="256" height="250" viewBox="0 0 256 250" fill="none" xmlns="http://www.w3.org/2000/svg">
<path fill-rule="evenodd" clip-rule="evenodd" d="M128.128 0C57.7764 0 0.904297 57.2914 0.904297 128.169C0.904297 184.825 37.3442 232.783 87.896 249.757C94.2163 251.033 96.5314 246.999 96.5314 243.606C96.5314 240.634 96.3231 230.45 96.3231 219.838C60.9326 227.478 53.5629 204.559 53.5629 204.559C47.8754 189.705 39.4484 185.887 39.4484 185.887C27.8651 178.036 40.2921 178.036 40.2921 178.036C53.141 178.885 59.8832 191.192 59.8832 191.192C71.2555 210.713 89.5809 205.197 96.9533 201.801C98.0053 193.525 101.378 187.796 104.958 184.614C76.732 181.642 47.0343 170.609 47.0343 121.377C47.0343 107.372 52.0863 95.9137 60.0915 87.0022C58.8285 83.82 54.404 70.6612 61.3571 53.0493C61.3571 53.0493 72.0992 49.6534 96.3205 66.2055C106.69 63.3999 117.385 61.9727 128.128 61.9607C138.87 61.9607 149.82 63.4477 159.932 66.2055C184.156 49.6534 194.898 53.0493 194.898 53.0493C201.851 70.6612 197.424 83.82 196.161 87.0022C204.377 95.9137 209.221 107.372 209.221 121.377C209.221 170.609 179.523 181.429 151.086 184.614C155.721 188.645 159.721 196.283 159.721 208.379C159.721 225.567 159.513 239.361 159.513 243.603C159.513 246.999 161.831 251.033 168.148 249.759C218.7 232.78 255.14 184.825 255.14 128.169C255.348 57.2914 198.268 0 128.128 0Z" fill="black"/>
</svg>
