<svg width="255" height="250" viewBox="0 0 255 250" fill="none" xmlns="http://www.w3.org/2000/svg">
<path fill-rule="evenodd" clip-rule="evenodd" d="M127.698 0C57.3472 0 0.475098 57.2914 0.475098 128.169C0.475098 184.825 36.915 232.783 87.4668 249.757C93.7871 251.033 96.1022 246.999 96.1022 243.606C96.1022 240.634 95.8939 230.45 95.8939 219.838C60.5034 227.478 53.1337 204.559 53.1337 204.559C47.4462 189.705 39.0192 185.887 39.0192 185.887C27.4359 178.036 39.8629 178.036 39.8629 178.036C52.7118 178.885 59.454 191.192 59.454 191.192C70.8263 210.713 89.1517 205.197 96.5241 201.801C97.5761 193.525 100.949 187.796 104.529 184.614C76.3028 181.642 46.6051 170.609 46.6051 121.377C46.6051 107.372 51.6571 95.9137 59.6623 87.0022C58.3993 83.82 53.9748 70.6612 60.9279 53.0493C60.9279 53.0493 71.67 49.6534 95.8913 66.2055C106.261 63.3999 116.956 61.9727 127.698 61.9607C138.441 61.9607 149.391 63.4477 159.503 66.2055C183.727 49.6534 194.469 53.0493 194.469 53.0493C201.422 70.6612 196.995 83.82 195.732 87.0022C203.948 95.9137 208.792 107.372 208.792 121.377C208.792 170.609 179.094 181.429 150.657 184.614C155.292 188.645 159.292 196.283 159.292 208.379C159.292 225.567 159.084 239.361 159.084 243.603C159.084 246.999 161.401 251.033 167.719 249.759C218.271 232.78 254.711 184.825 254.711 128.169C254.919 57.2914 197.839 0 127.698 0Z" fill="white"/>
</svg>
