<svg width="343" height="270" viewBox="0 0 343 270" fill="none" xmlns="http://www.w3.org/2000/svg">
<g filter="url(#filter0_di_1_16)">
<path d="M247.48 88.9915C252.957 88.2867 258.128 92.1384 257.771 97.6497C256.264 120.981 238.504 140.792 214.443 144.035C187.011 147.731 161.776 128.489 158.079 101.057C154.837 76.9964 169.241 54.626 191.341 46.9964C196.561 45.194 201.644 49.1603 202.414 54.6291C207.573 91.2624 210.788 93.7131 247.48 88.9915Z" fill="url(#paint0_linear_1_16)"/>
</g>
<g filter="url(#filter1_bdi_1_16)">
<path fill-rule="evenodd" clip-rule="evenodd" d="M234.351 203.245H132.283H127.691V203.097C91.0153 200.732 62 170.235 62 132.962C62 94.146 93.4666 62.6794 132.283 62.6794C167.262 62.6794 196.274 88.2337 201.666 121.692C210.162 113.577 221.675 108.593 234.351 108.593C260.489 108.593 281.677 129.781 281.677 155.919C281.677 180.507 262.926 200.716 238.943 203.025V203.245H234.351Z" fill="#E2E2E2" fill-opacity="0.27" shape-rendering="crispEdges"/>
</g>
<defs>
<filter id="filter0_di_1_16" x="106.624" y="0.164848" width="202.164" height="199.933" filterUnits="userSpaceOnUse" color-interpolation-filters="sRGB">
<feFlood flood-opacity="0" result="BackgroundImageFix"/>
<feColorMatrix in="SourceAlpha" type="matrix" values="0 0 0 0 0 0 0 0 0 0 0 0 0 0 0 0 0 0 127 0" result="hardAlpha"/>
<feOffset dy="4.6087"/>
<feGaussianBlur stdDeviation="25.5"/>
<feComposite in2="hardAlpha" operator="out"/>
<feColorMatrix type="matrix" values="0 0 0 0 0.633725 0 0 0 0 0.0745098 0 0 0 0 0.976471 0 0 0 1 0"/>
<feBlend mode="normal" in2="BackgroundImageFix" result="effect1_dropShadow_1_16"/>
<feBlend mode="normal" in="SourceGraphic" in2="effect1_dropShadow_1_16" result="shape"/>
<feColorMatrix in="SourceAlpha" type="matrix" values="0 0 0 0 0 0 0 0 0 0 0 0 0 0 0 0 0 0 127 0" result="hardAlpha"/>
<feOffset dy="4"/>
<feGaussianBlur stdDeviation="2"/>
<feComposite in2="hardAlpha" operator="arithmetic" k2="-1" k3="1"/>
<feColorMatrix type="matrix" values="0 0 0 0 1 0 0 0 0 1 0 0 0 0 1 0 0 0 0.25 0"/>
<feBlend mode="normal" in2="shape" result="effect2_innerShadow_1_16"/>
</filter>
<filter id="filter1_bdi_1_16" x="0.819569" y="6.10765" width="342.038" height="262.926" filterUnits="userSpaceOnUse" color-interpolation-filters="sRGB">
<feFlood flood-opacity="0" result="BackgroundImageFix"/>
<feGaussianBlur in="BackgroundImageFix" stdDeviation="23.0435"/>
<feComposite in2="SourceAlpha" operator="in" result="effect1_backgroundBlur_1_16"/>
<feColorMatrix in="SourceAlpha" type="matrix" values="0 0 0 0 0 0 0 0 0 0 0 0 0 0 0 0 0 0 127 0" result="hardAlpha"/>
<feOffset dy="4.6087"/>
<feGaussianBlur stdDeviation="30.5902"/>
<feComposite in2="hardAlpha" operator="out"/>
<feColorMatrix type="matrix" values="0 0 0 0 0 0 0 0 0 0 0 0 0 0 0 0 0 0 0.1 0"/>
<feBlend mode="normal" in2="effect1_backgroundBlur_1_16" result="effect2_dropShadow_1_16"/>
<feBlend mode="normal" in="SourceGraphic" in2="effect2_dropShadow_1_16" result="shape"/>
<feColorMatrix in="SourceAlpha" type="matrix" values="0 0 0 0 0 0 0 0 0 0 0 0 0 0 0 0 0 0 127 0" result="hardAlpha"/>
<feOffset dy="4.6087"/>
<feGaussianBlur stdDeviation="5.9913"/>
<feComposite in2="hardAlpha" operator="arithmetic" k2="-1" k3="1"/>
<feColorMatrix type="matrix" values="0 0 0 0 1 0 0 0 0 1 0 0 0 0 1 0 0 0 0.79 0"/>
<feBlend mode="normal" in2="shape" result="effect3_innerShadow_1_16"/>
</filter>
<linearGradient id="paint0_linear_1_16" x1="201.057" y1="44.6933" x2="214.443" y2="144.035" gradientUnits="userSpaceOnUse">
<stop stop-color="#8919F8"/>
<stop offset="1" stop-color="#FD038A"/>
</linearGradient>
</defs>
</svg>
