<svg width="224" height="227" viewBox="0 0 224 227" fill="none" xmlns="http://www.w3.org/2000/svg">
<g filter="url(#filter0_di_1_52)">
<circle cx="103.09" cy="120.54" r="92.0897" fill="url(#paint0_linear_1_52)"/>
<circle cx="103.09" cy="120.54" r="91.557" stroke="black" stroke-opacity="0.02" stroke-width="1.06544"/>
</g>
<g filter="url(#filter1_bd_1_52)">
<path d="M216.718 114.622C217.03 119.105 213.379 122.76 208.886 122.76C197.796 122.76 171.551 122.76 109.435 122.76C104.942 122.76 101.241 119.042 101.241 114.548C101.244 59.4892 101.278 100.54 101.244 15.1765C101.242 10.6815 104.898 6.9703 109.382 7.28183C166.827 11.2729 212.729 57.1761 216.718 114.622Z" fill="white" fill-opacity="0.3" shape-rendering="crispEdges"/>
<path d="M216.349 114.647C216.645 118.901 213.181 122.39 208.886 122.39H208.821H208.755H208.689H208.623H208.557H208.49H208.422H208.355H208.287H208.219H208.15H208.081H208.011H207.942H207.872H207.801H207.73H207.659H207.588H207.516H207.443H207.371H207.298H207.224H207.151H207.076H207.002H206.927H206.852H206.776H206.7H206.624H206.547H206.47H206.392H206.315H206.236H206.158H206.079H205.999H205.919H205.839H205.759H205.678H205.596H205.515H205.433H205.35H205.267H205.184H205.1H205.016H204.932H204.847H204.762H204.676H204.59H204.503H204.417H204.329H204.242H204.154H204.065H203.976H203.887H203.797H203.707H203.617H203.526H203.435H203.343H203.251H203.158H203.065H202.972H202.878H202.784H202.689H202.594H202.498H202.403H202.306H202.209H202.112H202.015H201.917H201.818H201.719H201.62H201.52H201.42H201.32H201.219H201.117H201.015H200.913H200.81H200.707H200.603H200.499H200.395H200.29H200.184H200.078H199.972H199.865H199.758H199.651H199.543H199.434H199.325H199.216H199.106H198.996H198.885H198.774H198.662H198.55H198.437H198.324H198.211H198.097H197.982H197.867H197.752H197.636H197.52H197.403H197.286H197.168H197.05H196.932H196.813H196.693H196.573H196.452H196.332H196.21H196.088H195.966H195.843H195.72H195.596H195.472H195.347H195.221H195.096H194.97H194.843H194.716H194.588H194.46H194.331H194.202H194.072H193.942H193.812H193.681H193.549H193.417H193.284H193.151H193.018H192.884H192.749H192.614H192.478H192.342H192.206H192.069H191.931H191.793H191.654H191.515H191.376H191.236H191.095H190.954H190.812H190.67H190.527H190.384H190.24H190.096H189.951H189.806H189.66H189.514H189.367H189.22H189.072H188.924H188.775H188.625H188.475H188.325H188.174H188.022H187.87H187.718H187.565H187.411H187.257H187.102H186.947H186.791H186.634H186.478H186.32H186.162H186.004H185.845H185.685H185.525H185.364H185.203H185.041H184.879H184.716H184.552H184.388H184.224H184.059H183.893H183.727H183.56H183.393H183.225H183.057H182.888H182.718H182.548H182.377H182.206H182.034H181.862H181.689H181.516H181.342H181.167H180.992H180.816H180.64H180.463H180.285H180.107H179.929H179.75H179.57H179.389H179.209H179.027H178.845H178.662H178.479H178.295H178.111H177.926H177.74H177.554H177.367H177.18H176.992H176.803H176.614H176.425H176.234H176.043H175.852H175.66H175.467H175.274H175.08H174.885H174.69H174.495H174.298H174.101H173.904H173.706H173.507H173.308H173.108H172.907H172.706H172.504H172.302H172.099H171.896H171.691H171.487H171.281H171.075H170.868H170.661H170.453H170.245H170.035H169.826H169.615H169.404H169.193H168.98H168.767H168.554H168.34H168.125H167.909H167.693H167.477H167.259H167.041H166.823H166.604H166.384H166.163H165.942H165.72H165.498H165.275H165.051H164.827H164.602H164.376H164.15H163.923H163.695H163.467H163.238H163.009H162.778H162.547H162.316H162.084H161.851H161.618H161.383H161.149H160.913H160.677H160.44H160.203H159.965H159.726H159.487H159.246H159.006H158.764H158.522H158.279H158.036H157.792H157.547H157.302H157.055H156.809H156.561H156.313H156.064H155.815H155.564H155.314H155.062H154.81H154.557H154.303H154.049H153.794H153.538H153.282H153.025H152.767H152.509H152.249H151.99H151.729H151.468H151.206H150.943H150.68H150.416H150.151H149.886H149.62H149.353H149.086H148.817H148.548H148.279H148.008H147.737H147.466H147.193H146.92H146.646H146.372H146.096H145.82H145.543H145.266H144.988H144.709H144.429H144.149H143.868H143.586H143.304H143.02H142.737H142.452H142.166H141.88H141.593H141.306H141.018H140.729H140.439H140.148H139.857H139.565H139.272H138.979H138.685H138.39H138.094H137.798H137.501H137.203H136.904H136.605H136.305H136.004H135.702H135.4H135.097H134.793H134.488H134.183H133.877H133.57H133.262H132.954H132.645H132.335H132.024H131.713H131.401H131.088H130.774H130.459H130.144H129.828H129.512H129.194H128.876H128.557H128.237H127.916H127.595H127.273H126.95H126.626H126.302H125.977H125.651H125.324H124.996H124.668H124.339H124.009H123.678H123.347H123.014H122.681H122.348H122.013H121.678H121.341H121.004H120.667H120.328H119.989H119.649H119.308H118.966H118.623H118.28H117.936H117.591H117.245H116.899H116.552H116.203H115.854H115.505H115.154H114.803H114.451H114.098H113.744H113.389H113.034H112.678H112.321H111.963H111.604H111.245H110.885H110.524H110.162H109.799H109.435C105.147 122.39 101.61 118.838 101.611 114.548C101.612 92.9955 101.618 86.17 101.623 80.7238C101.63 72.2571 101.635 67.1238 101.614 15.1763C101.612 10.8764 105.105 7.35542 109.356 7.65078C166.617 11.629 212.373 57.3858 216.349 114.647Z" stroke="#8D8D8D" stroke-opacity="0.09" stroke-width="0.739677" shape-rendering="crispEdges"/>
</g>
<defs>
<filter id="filter0_di_1_52" x="0.422626" y="20.832" width="205.334" height="207.78" filterUnits="userSpaceOnUse" color-interpolation-filters="sRGB">
<feFlood flood-opacity="0" result="BackgroundImageFix"/>
<feColorMatrix in="SourceAlpha" type="matrix" values="0 0 0 0 0 0 0 0 0 0 0 0 0 0 0 0 0 0 127 0" result="hardAlpha"/>
<feOffset dy="2.95871"/>
<feGaussianBlur stdDeviation="5.28869"/>
<feComposite in2="hardAlpha" operator="out"/>
<feColorMatrix type="matrix" values="0 0 0 0 0.647059 0 0 0 0 1 0 0 0 0 0.682353 0 0 0 1 0"/>
<feBlend mode="normal" in2="BackgroundImageFix" result="effect1_dropShadow_1_52"/>
<feBlend mode="normal" in="SourceGraphic" in2="effect1_dropShadow_1_52" result="shape"/>
<feColorMatrix in="SourceAlpha" type="matrix" values="0 0 0 0 0 0 0 0 0 0 0 0 0 0 0 0 0 0 127 0" result="hardAlpha"/>
<feOffset dy="15.9816"/>
<feGaussianBlur stdDeviation="10.4946"/>
<feComposite in2="hardAlpha" operator="arithmetic" k2="-1" k3="1"/>
<feColorMatrix type="matrix" values="0 0 0 0 1 0 0 0 0 1 0 0 0 0 1 0 0 0 0.62 0"/>
<feBlend mode="normal" in2="shape" result="effect2_innerShadow_1_52"/>
</filter>
<filter id="filter1_bd_1_52" x="77.8671" y="-11.2394" width="157.373" height="157.373" filterUnits="userSpaceOnUse" color-interpolation-filters="sRGB">
<feFlood flood-opacity="0" result="BackgroundImageFix"/>
<feGaussianBlur in="BackgroundImageFix" stdDeviation="9.25146"/>
<feComposite in2="SourceAlpha" operator="in" result="effect1_backgroundBlur_1_52"/>
<feColorMatrix in="SourceAlpha" type="matrix" values="0 0 0 0 0 0 0 0 0 0 0 0 0 0 0 0 0 0 127 0" result="hardAlpha"/>
<feOffset dx="-8.13644" dy="8.13644"/>
<feGaussianBlur stdDeviation="7.61867"/>
<feComposite in2="hardAlpha" operator="out"/>
<feColorMatrix type="matrix" values="0 0 0 0 0.370775 0 0 0 0 0.370775 0 0 0 0 0.370775 0 0 0 0.09 0"/>
<feBlend mode="normal" in2="effect1_backgroundBlur_1_52" result="effect2_dropShadow_1_52"/>
<feBlend mode="normal" in="SourceGraphic" in2="effect2_dropShadow_1_52" result="shape"/>
</filter>
<linearGradient id="paint0_linear_1_52" x1="146.361" y1="195.618" x2="41.6966" y2="54.3393" gradientUnits="userSpaceOnUse">
<stop stop-color="#49F479"/>
<stop offset="1" stop-color="#9EFF7D"/>
</linearGradient>
</defs>
</svg>
