<svg width="251" height="250" viewBox="0 0 251 250" fill="none" xmlns="http://www.w3.org/2000/svg">
<path d="M183.751 150.125C181.24 148.876 164.913 141.386 162.401 140.137C159.89 138.889 157.377 138.889 154.866 141.386C152.355 143.883 147.331 151.374 144.82 153.87C143.563 156.367 141.051 156.367 138.54 155.118C129.748 151.374 120.957 146.38 113.422 140.137C107.143 133.895 100.863 126.405 95.8397 118.914C94.5837 116.417 95.8397 113.92 97.0954 112.672C98.3513 111.423 99.6073 108.926 102.119 107.678C103.375 106.43 104.631 103.933 104.631 102.684C105.887 101.436 105.887 98.9388 104.631 97.6904C103.375 96.4419 97.0955 81.4606 94.5838 75.2185C93.3278 66.4794 90.816 66.4794 88.3043 66.4794C87.0484 66.4794 84.5367 66.4794 82.0249 66.4794C79.5131 66.4794 75.7455 68.9763 74.4896 70.2247C66.9544 77.7153 63.1867 86.4544 63.1867 96.4419C64.4426 107.678 68.2102 118.914 75.7455 128.901C89.5602 148.876 107.143 165.106 128.492 175.093C134.772 177.591 139.796 180.087 146.075 181.336C152.355 183.833 158.633 183.833 166.17 182.584C174.96 181.336 182.496 175.093 187.519 167.603C190.031 162.609 190.031 157.616 188.775 152.622C188.775 152.622 186.263 151.374 183.751 150.125ZM215.149 36.5169C166.17 -12.1723 87.0484 -12.1723 38.0691 36.5169C-2.11919 76.4669 -9.65448 137.641 17.9749 186.33L0.392578 250L66.9544 232.522C85.7925 242.509 105.887 247.503 125.981 247.503C195.055 247.503 250.314 192.572 250.314 123.908C251.569 91.4482 237.755 60.2372 215.149 36.5169ZM181.24 211.299C164.913 221.286 146.075 227.528 125.981 227.528C107.143 227.528 89.5602 222.534 73.2338 213.795L69.4661 211.299L30.5338 221.286L40.5808 183.833L38.0691 180.087C7.92787 130.15 22.9984 67.7278 71.9779 36.5169C120.957 5.30586 183.751 21.5355 213.892 68.9763C244.034 117.666 230.219 181.336 181.24 211.299Z" fill="white"/>
</svg>
