<svg width="204" height="250" viewBox="0 0 204 250" fill="none" xmlns="http://www.w3.org/2000/svg">
<path d="M103.575 71.8308C93.6998 71.8308 78.4138 60.603 62.3161 61.0088C41.078 61.2794 21.5984 73.3188 10.6412 92.3925C-11.4086 130.675 4.95966 187.22 26.4683 218.333C37.0197 233.484 49.465 250.529 65.9685 249.987C81.7956 249.311 87.7477 239.707 106.957 239.707C126.03 239.707 131.441 249.987 148.215 249.582C165.26 249.311 176.082 234.16 186.498 218.874C198.538 201.289 203.543 184.244 203.813 183.297C203.407 183.162 170.671 170.581 170.265 132.704C169.995 101.05 196.103 85.8994 197.32 85.223C182.44 63.4438 159.579 61.0088 151.597 60.4677C130.765 58.8445 113.315 71.8308 103.575 71.8308ZM138.746 39.906C147.539 29.3546 153.356 14.6097 151.733 0C139.152 0.541098 124.001 8.38702 114.938 18.9384C106.821 28.2724 99.7872 43.2879 101.681 57.627C115.614 58.7092 129.953 50.4574 138.746 39.906Z" fill="#8F8F8F"/>
</svg>
