<svg width="1101" height="250" viewBox="0 0 1101 250" fill="none" xmlns="http://www.w3.org/2000/svg">
<path d="M231.211 246.352H35.4053C22.4621 246.352 10.1829 239.556 4.20912 227.951C-2.59429 214.688 -0.105231 198.773 10.3487 188.328L146.583 52.2214H49.012C22.1303 52.2214 0.392578 30.504 0.392578 3.64721H180.766C193.709 3.64721 205.988 10.4443 211.962 22.049C218.766 35.3116 216.276 51.2267 205.822 61.6711L69.5882 197.778H182.591C209.473 197.778 231.211 219.496 231.211 246.352ZM1006.14 0C978.096 0 952.868 12.1021 935.609 31.4986C918.191 12.1021 892.966 0 865.09 0C812.983 0 770.506 44.4297 770.506 96.3193V246.352C797.386 246.352 819.123 224.635 819.123 197.778V95.8221C819.123 70.7889 838.538 49.5689 863.428 48.5742C889.649 47.5795 911.386 68.6336 911.386 94.6617V197.778C911.386 224.635 933.123 246.352 960.004 246.352V95.8221C960.004 70.7889 979.42 49.5689 1004.31 48.5742C1030.53 47.5795 1052.27 68.6336 1052.27 94.6617V197.778C1052.27 224.635 1074.01 246.352 1100.88 246.352V96.3193C1100.71 44.4297 1058.24 0 1006.14 0ZM476.465 125C476.465 193.966 420.379 250 351.348 250C282.319 250 226.233 193.966 226.233 125C226.233 56.0342 282.485 0 351.348 0C420.213 0 476.465 56.0342 476.465 125ZM427.845 125C427.845 82.8913 393.497 48.5742 351.348 48.5742C309.201 48.5742 274.852 82.8913 274.852 125C274.852 167.109 309.201 201.426 351.348 201.426C393.497 201.426 427.845 167.109 427.845 125ZM746.112 125C746.112 193.966 690.028 250 620.999 250C551.964 250 495.879 193.966 495.879 125C495.879 56.0342 552.135 0 620.999 0C689.857 0 746.112 56.0342 746.112 125ZM697.494 125C697.494 82.8913 663.146 48.5742 620.999 48.5742C578.85 48.5742 544.499 82.8913 544.499 125C544.499 167.109 578.85 201.426 620.999 201.426C663.146 201.426 697.494 167.109 697.494 125Z" fill="white"/>
</svg>
