<svg width="255" height="274" viewBox="0 0 255 274" fill="none" xmlns="http://www.w3.org/2000/svg">
<g filter="url(#filter0_i_1_3)">
<rect x="40" y="23" width="175" height="109" rx="29" fill="url(#paint0_linear_1_3)"/>
<rect x="40" y="23" width="175" height="109" rx="29" fill="url(#paint1_linear_1_3)" fill-opacity="0.8"/>
</g>
<g filter="url(#filter1_bdi_1_3)">
<rect x="40" y="71" width="175" height="159" rx="29" fill="white" fill-opacity="0.4" shape-rendering="crispEdges"/>
</g>
<path d="M112.986 113.565C112.918 112.878 112.625 112.344 112.108 111.963C111.591 111.582 110.889 111.392 110.003 111.392C109.401 111.392 108.892 111.477 108.477 111.648C108.063 111.812 107.744 112.043 107.523 112.338C107.307 112.634 107.199 112.969 107.199 113.344C107.188 113.656 107.253 113.929 107.395 114.162C107.543 114.395 107.744 114.597 108 114.767C108.256 114.932 108.551 115.077 108.886 115.202C109.222 115.321 109.58 115.423 109.96 115.509L111.528 115.884C112.29 116.054 112.989 116.281 113.625 116.565C114.261 116.849 114.813 117.199 115.278 117.614C115.744 118.028 116.105 118.517 116.361 119.08C116.622 119.642 116.756 120.287 116.761 121.014C116.756 122.082 116.483 123.009 115.943 123.793C115.409 124.571 114.636 125.176 113.625 125.608C112.619 126.034 111.406 126.247 109.986 126.247C108.577 126.247 107.349 126.031 106.304 125.599C105.264 125.168 104.452 124.528 103.866 123.682C103.287 122.83 102.983 121.776 102.955 120.52H106.526C106.565 121.105 106.733 121.594 107.028 121.986C107.33 122.372 107.73 122.665 108.23 122.864C108.736 123.057 109.307 123.153 109.943 123.153C110.568 123.153 111.111 123.062 111.571 122.881C112.037 122.699 112.398 122.446 112.653 122.122C112.909 121.798 113.037 121.426 113.037 121.006C113.037 120.614 112.92 120.284 112.688 120.017C112.46 119.75 112.125 119.523 111.682 119.335C111.244 119.148 110.707 118.977 110.071 118.824L108.17 118.347C106.699 117.989 105.537 117.429 104.685 116.668C103.832 115.906 103.409 114.881 103.415 113.591C103.409 112.534 103.69 111.611 104.259 110.821C104.832 110.031 105.619 109.415 106.619 108.972C107.619 108.528 108.756 108.307 110.028 108.307C111.324 108.307 112.455 108.528 113.42 108.972C114.392 109.415 115.148 110.031 115.688 110.821C116.227 111.611 116.506 112.526 116.523 113.565H112.986ZM127.57 120.426V112.909H131.201V126H127.715V123.622H127.579C127.283 124.389 126.792 125.006 126.104 125.472C125.423 125.937 124.59 126.17 123.607 126.17C122.732 126.17 121.962 125.972 121.298 125.574C120.633 125.176 120.113 124.611 119.738 123.878C119.369 123.145 119.181 122.267 119.175 121.244V112.909H122.806V120.597C122.812 121.369 123.019 121.98 123.428 122.429C123.837 122.878 124.386 123.102 125.073 123.102C125.511 123.102 125.92 123.003 126.3 122.804C126.681 122.599 126.988 122.298 127.221 121.901C127.46 121.503 127.576 121.011 127.57 120.426ZM137.736 118.432V126H134.105V112.909H137.565V115.219H137.719C138.009 114.457 138.494 113.855 139.176 113.412C139.858 112.963 140.685 112.739 141.656 112.739C142.565 112.739 143.358 112.938 144.034 113.335C144.71 113.733 145.236 114.301 145.611 115.04C145.986 115.773 146.173 116.648 146.173 117.665V126H142.543V118.312C142.548 117.511 142.344 116.886 141.929 116.438C141.514 115.983 140.943 115.756 140.216 115.756C139.727 115.756 139.295 115.861 138.92 116.071C138.551 116.281 138.261 116.588 138.051 116.991C137.847 117.389 137.741 117.869 137.736 118.432Z" fill="#E50000"/>
<path d="M127.136 194.636C123.636 194.636 120.523 194.068 117.795 192.932C115.083 191.78 112.955 190.212 111.409 188.227C109.864 186.242 109.091 183.992 109.091 181.477C109.091 179.538 109.53 177.758 110.409 176.136C111.303 174.5 112.515 173.144 114.045 172.068C115.576 170.977 117.288 170.28 119.182 169.977V169.659C116.697 169.159 114.682 167.955 113.136 166.045C111.591 164.121 110.818 161.886 110.818 159.341C110.818 156.932 111.523 154.788 112.932 152.909C114.341 151.015 116.273 149.53 118.727 148.455C121.197 147.364 124 146.818 127.136 146.818C130.273 146.818 133.068 147.364 135.523 148.455C137.992 149.545 139.932 151.038 141.341 152.932C142.75 154.811 143.462 156.947 143.477 159.341C143.462 161.902 142.674 164.136 141.114 166.045C139.553 167.955 137.553 169.159 135.114 169.659V169.977C136.977 170.28 138.667 170.977 140.182 172.068C141.712 173.144 142.924 174.5 143.818 176.136C144.727 177.758 145.189 179.538 145.205 181.477C145.189 183.992 144.409 186.242 142.864 188.227C141.318 190.212 139.182 191.78 136.455 192.932C133.742 194.068 130.636 194.636 127.136 194.636ZM127.136 187.409C128.697 187.409 130.061 187.129 131.227 186.568C132.394 185.992 133.303 185.205 133.955 184.205C134.621 183.189 134.955 182.023 134.955 180.705C134.955 179.356 134.614 178.167 133.932 177.136C133.25 176.091 132.326 175.273 131.159 174.682C129.992 174.076 128.652 173.773 127.136 173.773C125.636 173.773 124.295 174.076 123.114 174.682C121.932 175.273 121 176.091 120.318 177.136C119.652 178.167 119.318 179.356 119.318 180.705C119.318 182.023 119.644 183.189 120.295 184.205C120.947 185.205 121.864 185.992 123.045 186.568C124.227 187.129 125.591 187.409 127.136 187.409ZM127.136 166.614C128.439 166.614 129.598 166.348 130.614 165.818C131.629 165.288 132.424 164.553 133 163.614C133.576 162.674 133.864 161.591 133.864 160.364C133.864 159.152 133.576 158.091 133 157.182C132.424 156.258 131.636 155.538 130.636 155.023C129.636 154.492 128.47 154.227 127.136 154.227C125.818 154.227 124.652 154.492 123.636 155.023C122.621 155.538 121.826 156.258 121.25 157.182C120.689 158.091 120.409 159.152 120.409 160.364C120.409 161.591 120.697 162.674 121.273 163.614C121.848 164.553 122.644 165.288 123.659 165.818C124.674 166.348 125.833 166.614 127.136 166.614Z" fill="black"/>
<g filter="url(#filter2_d_1_3)">
<rect x="157" y="2" width="17" height="45" rx="8.5" fill="white"/>
</g>
<g filter="url(#filter3_d_1_3)">
<rect x="81" y="2" width="17" height="45" rx="8.5" fill="white"/>
</g>
<defs>
<filter id="filter0_i_1_3" x="40" y="23" width="175" height="113" filterUnits="userSpaceOnUse" color-interpolation-filters="sRGB">
<feFlood flood-opacity="0" result="BackgroundImageFix"/>
<feBlend mode="normal" in="SourceGraphic" in2="BackgroundImageFix" result="shape"/>
<feColorMatrix in="SourceAlpha" type="matrix" values="0 0 0 0 0 0 0 0 0 0 0 0 0 0 0 0 0 0 127 0" result="hardAlpha"/>
<feOffset dy="4"/>
<feGaussianBlur stdDeviation="2"/>
<feComposite in2="hardAlpha" operator="arithmetic" k2="-1" k3="1"/>
<feColorMatrix type="matrix" values="0 0 0 0 1 0 0 0 0 1 0 0 0 0 1 0 0 0 0.25 0"/>
<feBlend mode="normal" in2="shape" result="effect1_innerShadow_1_3"/>
</filter>
<filter id="filter1_bdi_1_3" x="0" y="35" width="255" height="239" filterUnits="userSpaceOnUse" color-interpolation-filters="sRGB">
<feFlood flood-opacity="0" result="BackgroundImageFix"/>
<feGaussianBlur in="BackgroundImageFix" stdDeviation="15"/>
<feComposite in2="SourceAlpha" operator="in" result="effect1_backgroundBlur_1_3"/>
<feColorMatrix in="SourceAlpha" type="matrix" values="0 0 0 0 0 0 0 0 0 0 0 0 0 0 0 0 0 0 127 0" result="hardAlpha"/>
<feOffset dy="4"/>
<feGaussianBlur stdDeviation="20"/>
<feComposite in2="hardAlpha" operator="out"/>
<feColorMatrix type="matrix" values="0 0 0 0 0 0 0 0 0 0 0 0 0 0 0 0 0 0 0.09 0"/>
<feBlend mode="normal" in2="effect1_backgroundBlur_1_3" result="effect2_dropShadow_1_3"/>
<feBlend mode="normal" in="SourceGraphic" in2="effect2_dropShadow_1_3" result="shape"/>
<feColorMatrix in="SourceAlpha" type="matrix" values="0 0 0 0 0 0 0 0 0 0 0 0 0 0 0 0 0 0 127 0" result="hardAlpha"/>
<feOffset dy="16"/>
<feGaussianBlur stdDeviation="6.15"/>
<feComposite in2="hardAlpha" operator="arithmetic" k2="-1" k3="1"/>
<feColorMatrix type="matrix" values="0 0 0 0 1 0 0 0 0 1 0 0 0 0 1 0 0 0 0.55 0"/>
<feBlend mode="normal" in2="shape" result="effect3_innerShadow_1_3"/>
</filter>
<filter id="filter2_d_1_3" x="151.2" y="0.2" width="28.6" height="56.6" filterUnits="userSpaceOnUse" color-interpolation-filters="sRGB">
<feFlood flood-opacity="0" result="BackgroundImageFix"/>
<feColorMatrix in="SourceAlpha" type="matrix" values="0 0 0 0 0 0 0 0 0 0 0 0 0 0 0 0 0 0 127 0" result="hardAlpha"/>
<feOffset dy="4"/>
<feGaussianBlur stdDeviation="2.9"/>
<feComposite in2="hardAlpha" operator="out"/>
<feColorMatrix type="matrix" values="0 0 0 0 0 0 0 0 0 0 0 0 0 0 0 0 0 0 0.25 0"/>
<feBlend mode="normal" in2="BackgroundImageFix" result="effect1_dropShadow_1_3"/>
<feBlend mode="normal" in="SourceGraphic" in2="effect1_dropShadow_1_3" result="shape"/>
</filter>
<filter id="filter3_d_1_3" x="75.2" y="0.2" width="28.6" height="56.6" filterUnits="userSpaceOnUse" color-interpolation-filters="sRGB">
<feFlood flood-opacity="0" result="BackgroundImageFix"/>
<feColorMatrix in="SourceAlpha" type="matrix" values="0 0 0 0 0 0 0 0 0 0 0 0 0 0 0 0 0 0 127 0" result="hardAlpha"/>
<feOffset dy="4"/>
<feGaussianBlur stdDeviation="2.9"/>
<feComposite in2="hardAlpha" operator="out"/>
<feColorMatrix type="matrix" values="0 0 0 0 0 0 0 0 0 0 0 0 0 0 0 0 0 0 0.25 0"/>
<feBlend mode="normal" in2="BackgroundImageFix" result="effect1_dropShadow_1_3"/>
<feBlend mode="normal" in="SourceGraphic" in2="effect1_dropShadow_1_3" result="shape"/>
</filter>
<linearGradient id="paint0_linear_1_3" x1="127.5" y1="23" x2="127.5" y2="132" gradientUnits="userSpaceOnUse">
<stop stop-color="#FF0000"/>
<stop offset="1" stop-color="#FF0000"/>
</linearGradient>
<linearGradient id="paint1_linear_1_3" x1="56" y1="32.1789" x2="215.827" y2="104.489" gradientUnits="userSpaceOnUse">
<stop stop-color="#FF9900"/>
<stop offset="1" stop-color="#FF004D"/>
</linearGradient>
</defs>
</svg>
