<svg width="307" height="290" viewBox="0 0 307 290" fill="none" xmlns="http://www.w3.org/2000/svg">
<g filter="url(#filter0_di_1_30)">
<path fill-rule="evenodd" clip-rule="evenodd" d="M49.0177 61.1267C45 69.0118 45 79.334 45 99.9783V114.214C45 134.859 45 145.181 49.0177 153.066C52.5517 160.002 58.1908 165.641 65.1267 169.175C67.8776 170.577 69.9754 173.194 69.9754 176.281L69.9754 202.148C69.9754 211.293 82.0517 214.584 86.6916 206.703L89.313 202.25C95.5479 191.659 98.6654 186.364 102.991 182.515C106.819 179.109 111.315 176.539 116.192 174.968C121.703 173.193 127.848 173.193 140.138 173.193H153.805C174.449 173.193 184.771 173.193 192.656 169.175C199.592 165.641 205.231 160.002 208.766 153.066C212.783 145.181 212.783 134.859 212.783 114.215V99.9783C212.783 79.334 212.783 69.0118 208.766 61.1267C205.231 54.1908 199.592 48.5517 192.656 45.0177C184.771 41 174.449 41 153.805 41H103.978C83.334 41 73.0118 41 65.1267 45.0177C58.1908 48.5517 52.5517 54.1908 49.0177 61.1267Z" fill="url(#paint0_linear_1_30)" fill-opacity="0.8" shape-rendering="crispEdges"/>
</g>
<g filter="url(#filter1_bdi_1_30)">
<mask id="path-2-inside-1_1_30" fill="white">
<path fill-rule="evenodd" clip-rule="evenodd" d="M251.982 86.5484C256 94.4335 256 104.756 256 125.4V139.636C256 160.281 256 170.603 251.982 178.488C248.448 185.424 242.809 191.063 235.873 194.597C233.625 195.742 231.962 197.913 231.962 200.437L231.962 224.887C231.962 233.971 220.017 237.31 215.306 229.544L213.767 227.006C207.485 216.65 204.345 211.472 200.04 207.712C196.23 204.385 191.776 201.877 186.955 200.345C181.508 198.614 175.452 198.614 163.34 198.614H142.111C121.466 198.614 111.144 198.614 103.259 194.597C96.3233 191.063 90.6842 185.424 87.1502 178.488C83.1325 170.603 83.1325 160.281 83.1325 139.636V125.4C83.1325 104.756 83.1325 94.4335 87.1502 86.5484C90.6842 79.6125 96.3233 73.9734 103.259 70.4393C111.144 66.4217 121.466 66.4217 142.111 66.4217H197.022C217.666 66.4217 227.988 66.4217 235.873 70.4393C242.809 73.9734 248.448 79.6125 251.982 86.5484Z"/>
</mask>
<path fill-rule="evenodd" clip-rule="evenodd" d="M251.982 86.5484C256 94.4335 256 104.756 256 125.4V139.636C256 160.281 256 170.603 251.982 178.488C248.448 185.424 242.809 191.063 235.873 194.597C233.625 195.742 231.962 197.913 231.962 200.437L231.962 224.887C231.962 233.971 220.017 237.31 215.306 229.544L213.767 227.006C207.485 216.65 204.345 211.472 200.04 207.712C196.23 204.385 191.776 201.877 186.955 200.345C181.508 198.614 175.452 198.614 163.34 198.614H142.111C121.466 198.614 111.144 198.614 103.259 194.597C96.3233 191.063 90.6842 185.424 87.1502 178.488C83.1325 170.603 83.1325 160.281 83.1325 139.636V125.4C83.1325 104.756 83.1325 94.4335 87.1502 86.5484C90.6842 79.6125 96.3233 73.9734 103.259 70.4393C111.144 66.4217 121.466 66.4217 142.111 66.4217H197.022C217.666 66.4217 227.988 66.4217 235.873 70.4393C242.809 73.9734 248.448 79.6125 251.982 86.5484Z" fill="#E6CBEF" fill-opacity="0.23" shape-rendering="crispEdges"/>
<path d="M251.982 86.5484L248.585 88.2796L251.982 86.5484ZM251.982 178.488L255.38 180.219H255.38L251.982 178.488ZM231.962 224.887H228.148H231.962ZM215.306 229.544L212.046 231.521L215.306 229.544ZM103.259 194.597L101.528 197.994L103.259 194.597ZM87.1502 178.488L83.7525 180.219L87.1502 178.488ZM87.1502 86.5484L90.5478 88.2796L87.1502 86.5484ZM103.259 70.4393L101.528 67.0417V67.0417L103.259 70.4393ZM235.873 70.4393L234.142 73.837L235.873 70.4393ZM200.04 207.712L202.548 204.84L200.04 207.712ZM186.955 200.345L188.11 196.711L186.955 200.345ZM252.187 125.4C252.187 115.015 252.184 107.455 251.697 101.5C251.214 95.5891 250.274 91.595 248.585 88.2796L255.38 84.8172C257.708 89.3869 258.777 94.4964 259.298 100.879C259.816 107.217 259.813 115.141 259.813 125.4H252.187ZM252.187 139.636V125.4H259.813V139.636H252.187ZM248.585 176.757C250.274 173.441 251.214 169.447 251.697 163.536C252.184 157.581 252.187 150.021 252.187 139.636H259.813C259.813 149.895 259.816 157.819 259.298 164.157C258.777 170.54 257.708 175.649 255.38 180.219L248.585 176.757ZM234.142 191.199C240.361 188.031 245.416 182.975 248.585 176.757L255.38 180.219C251.48 187.872 245.258 194.095 237.604 197.994L234.142 191.199ZM228.148 224.887L228.148 200.437H235.775L235.775 224.887H228.148ZM218.566 227.566C221.276 232.034 228.148 230.113 228.148 224.887H235.775C235.775 237.829 218.757 242.586 212.046 231.521L218.566 227.566ZM217.027 225.029L218.566 227.566L212.046 231.521L210.506 228.984L217.027 225.029ZM142.111 194.801H163.34V202.428H142.111V194.801ZM104.99 191.199C108.306 192.888 112.3 193.829 118.211 194.312C124.166 194.798 131.726 194.801 142.111 194.801V202.428C131.852 202.428 123.928 202.431 117.59 201.913C111.207 201.391 106.098 200.323 101.528 197.994L104.99 191.199ZM90.5478 176.757C93.7162 182.975 98.772 188.031 104.99 191.199L101.528 197.994C93.8746 194.095 87.6522 187.872 83.7525 180.219L90.5478 176.757ZM86.9458 139.636C86.9458 150.021 86.9487 157.581 87.4353 163.536C87.9183 169.447 88.8585 173.441 90.5478 176.757L83.7525 180.219C81.4242 175.649 80.3556 170.54 79.8341 164.157C79.3163 157.819 79.3193 149.895 79.3193 139.636H86.9458ZM86.9458 125.4V139.636H79.3193V125.4H86.9458ZM90.5478 88.2796C88.8585 91.595 87.9183 95.5891 87.4353 101.5C86.9487 107.455 86.9458 115.015 86.9458 125.4H79.3193C79.3193 115.141 79.3163 107.217 79.8341 100.879C80.3556 94.4964 81.4242 89.3869 83.7525 84.8172L90.5478 88.2796ZM104.99 73.837C98.772 77.0054 93.7162 82.0612 90.5478 88.2796L83.7525 84.8172C87.6522 77.1638 93.8746 70.9413 101.528 67.0417L104.99 73.837ZM142.111 70.2349C131.726 70.2349 124.166 70.2379 118.211 70.7245C112.3 71.2074 108.306 72.1477 104.99 73.837L101.528 67.0417C106.098 64.7133 111.207 63.6448 117.59 63.1233C123.928 62.6055 131.852 62.6084 142.111 62.6084V70.2349ZM197.022 70.2349H142.111V62.6084H197.022V70.2349ZM234.142 73.837C230.827 72.1477 226.833 71.2074 220.922 70.7245C214.966 70.2379 207.407 70.2349 197.022 70.2349V62.6084C207.281 62.6084 215.205 62.6055 221.543 63.1233C227.925 63.6448 233.035 64.7133 237.604 67.0417L234.142 73.837ZM248.585 88.2796C245.416 82.0612 240.361 77.0054 234.142 73.837L237.604 67.0417C245.258 70.9413 251.48 77.1638 255.38 84.8172L248.585 88.2796ZM210.506 228.984C204.095 218.414 201.285 213.863 197.531 210.584L202.548 204.84C207.404 209.081 210.876 214.887 217.027 225.029L210.506 228.984ZM163.34 194.801C175.201 194.801 181.966 194.759 188.11 196.711L185.8 203.98C181.05 202.47 175.702 202.428 163.34 202.428V194.801ZM197.531 210.584C194.116 207.601 190.122 205.353 185.8 203.98L188.11 196.711C193.429 198.402 198.344 201.169 202.548 204.84L197.531 210.584ZM237.604 197.994C236.31 198.654 235.775 199.678 235.775 200.437H228.148C228.148 196.149 230.94 192.831 234.142 191.199L237.604 197.994Z" fill="white" fill-opacity="0.12" mask="url(#path-2-inside-1_1_30)"/>
</g>
<circle cx="136.101" cy="136.059" r="9.17034" fill="url(#paint1_linear_1_30)"/>
<circle cx="169.887" cy="136.059" r="9.17034" fill="url(#paint2_linear_1_30)"/>
<circle cx="202.707" cy="136.059" r="9.17034" fill="url(#paint3_linear_1_30)"/>
<defs>
<filter id="filter0_di_1_30" x="0.10638" y="0.595742" width="257.57" height="259.929" filterUnits="userSpaceOnUse" color-interpolation-filters="sRGB">
<feFlood flood-opacity="0" result="BackgroundImageFix"/>
<feColorMatrix in="SourceAlpha" type="matrix" values="0 0 0 0 0 0 0 0 0 0 0 0 0 0 0 0 0 0 127 0" result="hardAlpha"/>
<feOffset dy="4.48936"/>
<feGaussianBlur stdDeviation="22.4468"/>
<feComposite in2="hardAlpha" operator="out"/>
<feColorMatrix type="matrix" values="0 0 0 0 0.780392 0 0 0 0 0.396078 0 0 0 0 0.921569 0 0 0 0.3 0"/>
<feBlend mode="normal" in2="BackgroundImageFix" result="effect1_dropShadow_1_30"/>
<feBlend mode="normal" in="SourceGraphic" in2="effect1_dropShadow_1_30" result="shape"/>
<feColorMatrix in="SourceAlpha" type="matrix" values="0 0 0 0 0 0 0 0 0 0 0 0 0 0 0 0 0 0 127 0" result="hardAlpha"/>
<feOffset dy="8.97872"/>
<feGaussianBlur stdDeviation="14.0854"/>
<feComposite in2="hardAlpha" operator="arithmetic" k2="-1" k3="1"/>
<feColorMatrix type="matrix" values="0 0 0 0 1 0 0 0 0 1 0 0 0 0 1 0 0 0 0.62 0"/>
<feBlend mode="normal" in2="shape" result="effect2_innerShadow_1_30"/>
</filter>
<filter id="filter1_bdi_1_30" x="32.2891" y="20.6627" width="274.554" height="269.147" filterUnits="userSpaceOnUse" color-interpolation-filters="sRGB">
<feFlood flood-opacity="0" result="BackgroundImageFix"/>
<feGaussianBlur in="BackgroundImageFix" stdDeviation="22.4468"/>
<feComposite in2="SourceAlpha" operator="in" result="effect1_backgroundBlur_1_30"/>
<feColorMatrix in="SourceAlpha" type="matrix" values="0 0 0 0 0 0 0 0 0 0 0 0 0 0 0 0 0 0 127 0" result="hardAlpha"/>
<feOffset dy="5.08434"/>
<feGaussianBlur stdDeviation="25.4217"/>
<feComposite in2="hardAlpha" operator="out"/>
<feColorMatrix type="matrix" values="0 0 0 0 0.852203 0 0 0 0 0.612513 0 0 0 0 0.938267 0 0 0 0.58 0"/>
<feBlend mode="normal" in2="effect1_backgroundBlur_1_30" result="effect2_dropShadow_1_30"/>
<feBlend mode="normal" in="SourceGraphic" in2="effect2_dropShadow_1_30" result="shape"/>
<feColorMatrix in="SourceAlpha" type="matrix" values="0 0 0 0 0 0 0 0 0 0 0 0 0 0 0 0 0 0 127 0" result="hardAlpha"/>
<feOffset dy="20.3373"/>
<feGaussianBlur stdDeviation="7.81717"/>
<feComposite in2="hardAlpha" operator="arithmetic" k2="-1" k3="1"/>
<feColorMatrix type="matrix" values="0 0 0 0 1 0 0 0 0 1 0 0 0 0 1 0 0 0 0.17 0"/>
<feBlend mode="normal" in2="shape" result="effect3_innerShadow_1_30"/>
</filter>
<linearGradient id="paint0_linear_1_30" x1="201.377" y1="50.83" x2="153.432" y2="218.796" gradientUnits="userSpaceOnUse">
<stop stop-color="#BD00FF"/>
<stop offset="1" stop-color="#9102C8"/>
</linearGradient>
<linearGradient id="paint1_linear_1_30" x1="136.101" y1="126.888" x2="136.101" y2="145.229" gradientUnits="userSpaceOnUse">
<stop stop-color="white"/>
<stop offset="1" stop-color="#E8E6E6"/>
</linearGradient>
<linearGradient id="paint2_linear_1_30" x1="169.887" y1="126.888" x2="169.887" y2="145.229" gradientUnits="userSpaceOnUse">
<stop stop-color="white"/>
<stop offset="1" stop-color="#E8E6E6"/>
</linearGradient>
<linearGradient id="paint3_linear_1_30" x1="202.707" y1="126.888" x2="202.707" y2="145.229" gradientUnits="userSpaceOnUse">
<stop stop-color="white"/>
<stop offset="1" stop-color="#E8E6E6"/>
</linearGradient>
</defs>
</svg>
