<svg width="358" height="250" viewBox="0 0 358 250" fill="none" xmlns="http://www.w3.org/2000/svg">
<path fill-rule="evenodd" clip-rule="evenodd" d="M318.079 7.46707C333.454 11.5828 345.538 23.6654 349.653 39.0405C357.09 66.8802 357.12 125 357.12 125C357.12 125 357.12 183.12 349.653 210.96C345.538 226.335 333.454 238.417 318.079 242.533C290.24 250 178.557 250 178.557 250C178.557 250 66.8744 250 39.0345 242.533C23.6595 238.417 11.5769 226.335 7.46121 210.96C-0.00585733 183.12 -0.00585938 125 -0.00585938 125C-0.00585938 125 -0.00585733 66.8802 7.46121 39.0405C11.5769 23.6654 23.6595 11.5828 39.0345 7.46707C66.8744 2.72468e-06 178.557 0 178.557 0C178.557 0 290.24 2.72468e-06 318.079 7.46707ZM235.59 125.005L142.81 178.568V71.4416L235.59 125.005Z" fill="white"/>
</svg>
