<svg width="243" height="250" viewBox="0 0 243 250" fill="none" xmlns="http://www.w3.org/2000/svg">
<path fill-rule="evenodd" clip-rule="evenodd" d="M168.945 187C171.41 188.303 174.573 188.163 176.759 186.21L176.852 186.303C183.457 180.441 195.459 169.974 202.204 164.346C204.902 162.114 204.436 158.532 202.297 155.555C201.648 154.657 200.995 153.777 200.347 152.902C194.947 145.624 189.83 138.728 189.83 124.899V73.3581C189.83 71.5971 189.84 69.8475 189.85 68.1112C189.963 48.3374 190.067 30.2798 175.27 16.4679C162.571 4.28 141.545 0 125.45 0C94.0043 0 58.8848 11.7232 51.4886 50.6109C50.7444 54.7516 53.7213 56.9372 56.4187 57.5432L88.5163 60.9848C91.4932 60.8456 93.6788 57.9148 94.2377 54.937C96.9822 41.54 108.24 35.0744 120.845 35.0744C127.637 35.0744 135.359 37.5865 139.407 43.6805C143.539 49.7753 143.476 57.8934 143.42 65.1771C143.414 66.0093 143.407 66.8306 143.407 67.6367V71.9167C140.312 72.2697 137.063 72.602 133.715 72.9445C116.33 74.7228 96.2691 76.7748 81.2124 83.4065C60.5134 92.3372 45.9526 110.619 45.9526 137.459C45.9526 171.835 67.6301 189 95.4477 189C118.985 189 131.824 183.465 149.966 164.951C150.922 166.327 151.776 167.591 152.58 168.781C156.857 175.111 159.703 179.325 168.945 187ZM143.409 107.351C143.408 106.77 143.407 106.185 143.407 105.595V98.4311C119.496 98.4311 94.2377 103.548 94.2377 131.738C94.2377 146.018 101.634 155.694 114.334 155.694C123.637 155.694 131.964 149.973 137.22 140.668C143.435 129.749 143.423 119.465 143.409 107.351ZM176.759 186.21C176.76 186.21 176.76 186.21 176.76 186.21H176.759L176.759 186.21Z" fill="white"/>
<path d="M6.79737 190.221C47.8719 215.263 111.452 254.027 212.788 205.799H212.787C217.155 203.976 220.207 207.02 215.886 212.537C211.535 218.102 176.757 250 118.297 250C59.8771 250 15.1209 210.088 1.46407 193.529C-2.27665 189.232 2.03473 187.291 4.57136 188.864C5.30593 189.311 6.04791 189.764 6.79737 190.221Z" fill="white"/>
<path d="M216.058 186.602C224.919 185.514 238.997 186.186 241.768 189.795H241.767C243.873 192.542 241.697 204.891 238.129 213.743C234.537 222.547 229.183 228.769 226.226 231.171C223.227 233.574 221.021 232.644 222.617 229.035C224.269 225.427 233.316 203.053 229.731 198.357C226.41 194.015 211.344 195.587 204.346 196.317C203.825 196.371 203.349 196.421 202.926 196.463C201.448 196.596 200.256 196.729 199.291 196.837C196.278 197.173 195.473 197.263 195.023 196.339C193.865 193.082 207.185 187.659 216.058 186.602Z" fill="white"/>
</svg>
