<svg width="175" height="250" viewBox="0 0 175 250" fill="none" xmlns="http://www.w3.org/2000/svg">
<path fill-rule="evenodd" clip-rule="evenodd" d="M0.666992 46.7736C0.666992 20.9413 21.6086 0 47.4414 0H127.701C153.534 0 174.475 20.9413 174.475 46.7736C174.475 63.131 166.079 77.5272 153.36 85.8873C166.079 94.2475 174.475 108.644 174.475 125.001C174.475 150.833 153.534 171.775 127.701 171.775H126.685C114.574 171.775 103.539 167.172 95.2318 159.621V202.718C95.2318 228.895 73.743 250 47.6938 250C21.9252 250 0.666992 229.123 0.666992 203.226C0.666992 186.87 9.06289 172.474 21.7802 164.114C9.06289 155.753 0.666992 141.358 0.666992 125.001C0.666992 108.644 9.06359 94.2475 21.7818 85.8873C9.06358 77.5272 0.666992 63.131 0.666992 46.7736ZM79.9104 93.5485H47.4414C30.0703 93.5485 15.9884 107.63 15.9884 125.001C15.9884 142.306 29.9634 156.346 47.2433 156.453C47.3093 156.453 47.3754 156.452 47.4414 156.452H79.9104V93.5485ZM95.2318 125.001C95.2318 142.372 109.314 156.454 126.685 156.454H127.701C145.072 156.454 159.154 142.372 159.154 125.001C159.154 107.63 145.072 93.5485 127.701 93.5485H126.685C109.314 93.5485 95.2318 107.63 95.2318 125.001ZM47.4414 171.775C47.3754 171.775 47.3093 171.775 47.2433 171.774C29.9635 171.881 15.9884 185.922 15.9884 203.226C15.9884 220.533 30.2585 234.679 47.6938 234.679C65.4096 234.679 79.9104 220.306 79.9104 202.718V171.775H47.4414ZM47.4414 15.3212H79.9104V78.2262H47.4414C30.0704 78.2262 15.9884 64.1445 15.9884 46.7736C15.9884 29.403 30.0704 15.3212 47.4414 15.3212ZM95.2318 78.2262V15.3212H127.701C145.072 15.3212 159.154 29.403 159.154 46.7736C159.154 64.1445 145.072 78.2262 127.701 78.2262H95.2318Z" fill="white"/>
</svg>
