<svg width="281" height="250" viewBox="0 0 281 250" fill="none" xmlns="http://www.w3.org/2000/svg">
<path d="M280.281 127.215C280.281 110.236 266.502 96.4567 249.523 96.4567C241.157 96.4567 233.775 99.6555 228.362 105.069C207.447 90.059 178.411 80.2165 146.423 78.9862L160.449 13.2874L205.97 22.8839C206.462 34.4488 216.059 43.7992 227.87 43.7992C239.927 43.7992 249.769 33.9567 249.769 21.8996C249.769 9.84254 239.927 0 227.87 0C219.258 0 211.876 4.92126 208.431 12.3031L157.496 1.47639C156.02 1.23033 154.543 1.47638 153.313 2.21457C152.083 2.95276 151.344 4.18308 150.852 5.65946L135.35 78.9862C102.624 79.9705 73.3424 89.5669 52.181 105.069C46.7676 99.9016 39.1397 96.4567 31.0196 96.4567C14.0412 96.4567 0.261719 110.236 0.261719 127.215C0.261719 139.764 7.64361 150.344 18.4704 155.266C17.9782 158.219 17.7322 161.417 17.7322 164.616C17.7322 211.86 72.6042 250 140.518 250C208.431 250 263.303 211.86 263.303 164.616C263.303 161.417 263.057 158.465 262.565 155.512C272.653 150.591 280.281 139.764 280.281 127.215ZM69.8975 149.114C69.8975 137.057 79.74 127.215 91.7971 127.215C103.854 127.215 113.697 137.057 113.697 149.114C113.697 161.171 103.854 171.014 91.7971 171.014C79.74 171.014 69.8975 161.171 69.8975 149.114ZM192.191 206.939C177.181 221.949 148.638 222.933 140.271 222.933C131.905 222.933 103.116 221.703 88.3522 206.939C86.1376 204.724 86.1376 201.033 88.3522 198.819C90.5668 196.604 94.2577 196.604 96.4723 198.819C105.823 208.169 126 211.614 140.518 211.614C155.035 211.614 174.966 208.169 184.563 198.819C186.777 196.604 190.468 196.604 192.683 198.819C194.405 201.28 194.405 204.724 192.191 206.939ZM188.254 171.014C176.197 171.014 166.354 161.171 166.354 149.114C166.354 137.057 176.197 127.215 188.254 127.215C200.311 127.215 210.153 137.057 210.153 149.114C210.153 161.171 200.311 171.014 188.254 171.014Z" fill="white"/>
</svg>
