<svg width="343" height="339" viewBox="0 0 343 339" fill="none" xmlns="http://www.w3.org/2000/svg">
<g filter="url(#filter0_ddi_1_80)">
<mask id="path-1-inside-1_1_80" fill="white">
<path fill-rule="evenodd" clip-rule="evenodd" d="M201.035 154C201.035 151.791 199.244 150 197.035 150H154.4C152.191 150 150.4 151.791 150.4 154V217.792C150.4 220.001 148.609 221.792 146.4 221.792H132.731C129.065 221.792 127.331 226.313 130.056 228.766L173.324 267.701C174.846 269.07 177.154 269.07 178.676 267.701L221.944 228.766C224.669 226.313 222.935 221.792 219.268 221.792H205.035C202.826 221.792 201.035 220.001 201.035 217.792V154Z"/>
</mask>
<path fill-rule="evenodd" clip-rule="evenodd" d="M201.035 154C201.035 151.791 199.244 150 197.035 150H154.4C152.191 150 150.4 151.791 150.4 154V217.792C150.4 220.001 148.609 221.792 146.4 221.792H132.731C129.065 221.792 127.331 226.313 130.056 228.766L173.324 267.701C174.846 269.07 177.154 269.07 178.676 267.701L221.944 228.766C224.669 226.313 222.935 221.792 219.268 221.792H205.035C202.826 221.792 201.035 220.001 201.035 217.792V154Z" fill="url(#paint0_linear_1_80)"/>
<path d="M173.324 267.701L172.655 268.444L173.324 267.701ZM178.676 267.701L178.007 266.958L178.676 267.701ZM130.056 228.766L129.387 229.509L130.056 228.766ZM154.4 151H197.035V149H154.4V151ZM151.4 217.792V154H149.4V217.792H151.4ZM132.731 222.792H146.4V220.792H132.731V222.792ZM173.993 266.958L130.725 228.022L129.387 229.509L172.655 268.444L173.993 266.958ZM221.275 228.022L178.007 266.958L179.345 268.444L222.613 229.509L221.275 228.022ZM205.035 222.792H219.268V220.792H205.035V222.792ZM200.035 154V217.792H202.035V154H200.035ZM205.035 220.792C203.378 220.792 202.035 219.449 202.035 217.792H200.035C200.035 220.554 202.274 222.792 205.035 222.792V220.792ZM222.613 229.509C226.02 226.444 223.851 220.792 219.268 220.792V222.792C222.018 222.792 223.319 226.183 221.275 228.022L222.613 229.509ZM172.655 268.444C174.557 270.155 177.443 270.155 179.345 268.444L178.007 266.958C176.866 267.984 175.134 267.984 173.993 266.958L172.655 268.444ZM132.731 220.792C128.149 220.792 125.98 226.444 129.387 229.509L130.725 228.022C128.681 226.183 129.982 222.792 132.731 222.792V220.792ZM149.4 217.792C149.4 219.449 148.057 220.792 146.4 220.792V222.792C149.162 222.792 151.4 220.554 151.4 217.792H149.4ZM197.035 151C198.692 151 200.035 152.343 200.035 154H202.035C202.035 151.239 199.796 149 197.035 149V151ZM154.4 149C151.639 149 149.4 151.239 149.4 154H151.4C151.4 152.343 152.743 151 154.4 151V149Z" fill="white" fill-opacity="0.51" mask="url(#path-1-inside-1_1_80)"/>
</g>
<g filter="url(#filter1_bdi_1_80)">
<path fill-rule="evenodd" clip-rule="evenodd" d="M234.351 197.565H132.283H127.691V197.418C91.0153 195.053 62 164.556 62 127.283C62 88.4666 93.4666 57 132.283 57C167.262 57 196.274 82.5543 201.666 116.013C210.162 107.897 221.675 102.913 234.351 102.913C260.489 102.913 281.677 124.102 281.677 150.239C281.677 174.828 262.926 195.036 238.943 197.345V197.565H234.351Z" fill="#E2E2E2" fill-opacity="0.27" shape-rendering="crispEdges"/>
</g>
<defs>
<filter id="filter0_ddi_1_80" x="87.1529" y="133.3" width="177.694" height="205.158" filterUnits="userSpaceOnUse" color-interpolation-filters="sRGB">
<feFlood flood-opacity="0" result="BackgroundImageFix"/>
<feColorMatrix in="SourceAlpha" type="matrix" values="0 0 0 0 0 0 0 0 0 0 0 0 0 0 0 0 0 0 127 0" result="hardAlpha"/>
<feOffset dy="28.16"/>
<feGaussianBlur stdDeviation="20.7853"/>
<feComposite in2="hardAlpha" operator="out"/>
<feColorMatrix type="matrix" values="0 0 0 0 0.25098 0 0 0 0 0.494118 0 0 0 0 0.956863 0 0 0 0.15 0"/>
<feBlend mode="normal" in2="BackgroundImageFix" result="effect1_dropShadow_1_80"/>
<feColorMatrix in="SourceAlpha" type="matrix" values="0 0 0 0 0 0 0 0 0 0 0 0 0 0 0 0 0 0 127 0" result="hardAlpha"/>
<feOffset dy="4"/>
<feGaussianBlur stdDeviation="10.35"/>
<feComposite in2="hardAlpha" operator="out"/>
<feColorMatrix type="matrix" values="0 0 0 0 0.203922 0 0 0 0 0.415686 0 0 0 0 0.976471 0 0 0 0.39 0"/>
<feBlend mode="normal" in2="effect1_dropShadow_1_80" result="effect2_dropShadow_1_80"/>
<feBlend mode="normal" in="SourceGraphic" in2="effect2_dropShadow_1_80" result="shape"/>
<feColorMatrix in="SourceAlpha" type="matrix" values="0 0 0 0 0 0 0 0 0 0 0 0 0 0 0 0 0 0 127 0" result="hardAlpha"/>
<feOffset dy="4"/>
<feGaussianBlur stdDeviation="2.34667"/>
<feComposite in2="hardAlpha" operator="arithmetic" k2="-1" k3="1"/>
<feColorMatrix type="matrix" values="0 0 0 0 1 0 0 0 0 1 0 0 0 0 1 0 0 0 0.25 0"/>
<feBlend mode="normal" in2="shape" result="effect3_innerShadow_1_80"/>
</filter>
<filter id="filter1_bdi_1_80" x="0.819569" y="0.428264" width="342.038" height="262.926" filterUnits="userSpaceOnUse" color-interpolation-filters="sRGB">
<feFlood flood-opacity="0" result="BackgroundImageFix"/>
<feGaussianBlur in="BackgroundImageFix" stdDeviation="23.0435"/>
<feComposite in2="SourceAlpha" operator="in" result="effect1_backgroundBlur_1_80"/>
<feColorMatrix in="SourceAlpha" type="matrix" values="0 0 0 0 0 0 0 0 0 0 0 0 0 0 0 0 0 0 127 0" result="hardAlpha"/>
<feOffset dy="4.6087"/>
<feGaussianBlur stdDeviation="30.5902"/>
<feComposite in2="hardAlpha" operator="out"/>
<feColorMatrix type="matrix" values="0 0 0 0 0 0 0 0 0 0 0 0 0 0 0 0 0 0 0.1 0"/>
<feBlend mode="normal" in2="effect1_backgroundBlur_1_80" result="effect2_dropShadow_1_80"/>
<feBlend mode="normal" in="SourceGraphic" in2="effect2_dropShadow_1_80" result="shape"/>
<feColorMatrix in="SourceAlpha" type="matrix" values="0 0 0 0 0 0 0 0 0 0 0 0 0 0 0 0 0 0 127 0" result="hardAlpha"/>
<feOffset dy="4.6087"/>
<feGaussianBlur stdDeviation="5.9913"/>
<feComposite in2="hardAlpha" operator="arithmetic" k2="-1" k3="1"/>
<feColorMatrix type="matrix" values="0 0 0 0 1 0 0 0 0 1 0 0 0 0 1 0 0 0 0.79 0"/>
<feBlend mode="normal" in2="shape" result="effect3_innerShadow_1_80"/>
</filter>
<linearGradient id="paint0_linear_1_80" x1="175.835" y1="140.589" x2="175.835" y2="278.333" gradientUnits="userSpaceOnUse">
<stop stop-color="#5FB6FB"/>
<stop offset="0.526658" stop-color="#76ACFF"/>
<stop offset="1" stop-color="#194ACB"/>
</linearGradient>
</defs>
</svg>
