<svg width="251" height="250" viewBox="0 0 251 250" fill="none" xmlns="http://www.w3.org/2000/svg">
<path fill-rule="evenodd" clip-rule="evenodd" d="M125.076 60.8109C89.6252 60.8109 60.887 89.5491 60.887 125C60.887 160.451 89.6252 189.189 125.076 189.189C160.527 189.189 189.265 160.451 189.265 125C189.265 89.5491 160.527 60.8109 125.076 60.8109ZM125.076 166.667C102.064 166.667 83.4095 148.012 83.4095 125C83.4095 101.988 102.064 83.3333 125.076 83.3333C148.088 83.3333 166.743 101.988 166.743 125C166.743 148.012 148.088 166.667 125.076 166.667Z" fill="white"/>
<path d="M191.801 73.2746C200.086 73.2746 206.802 66.5592 206.802 58.2748C206.802 49.9905 200.086 43.2746 191.801 43.2746C183.518 43.2746 176.802 49.9905 176.802 58.2748C176.802 66.5592 183.518 73.2746 191.801 73.2746Z" fill="white"/>
<path fill-rule="evenodd" clip-rule="evenodd" d="M125.076 0C91.1282 0 86.8714 0.143895 73.5388 0.752221C60.234 1.35906 51.1473 3.47233 43.1964 6.56259C34.9766 9.75655 28.0056 14.0307 21.056 20.9798C14.1069 27.9294 9.83272 34.9004 6.63876 43.1203C3.5485 51.0712 1.43523 60.1579 0.828393 73.4627C0.220067 86.7952 0.0761719 91.052 0.0761719 125C0.0761719 158.948 0.220067 163.205 0.828393 176.537C1.43523 189.842 3.5485 198.929 6.63876 206.88C9.83272 215.1 14.1069 222.071 21.056 229.02C28.0056 235.969 34.9766 240.243 43.1964 243.438C51.1473 246.528 60.234 248.641 73.5388 249.248C86.8714 249.856 91.1282 250 125.076 250C159.024 250 163.281 249.856 176.614 249.248C189.918 248.641 199.005 246.528 206.956 243.438C215.176 240.243 222.147 235.969 229.096 229.02C236.045 222.071 240.32 215.1 243.514 206.88C246.604 198.929 248.717 189.842 249.324 176.537C249.932 163.205 250.076 158.948 250.076 125C250.076 91.052 249.932 86.7952 249.324 73.4627C248.717 60.1579 246.604 51.0712 243.514 43.1203C240.32 34.9004 236.045 27.9294 229.096 20.9798C222.147 14.0307 215.176 9.75655 206.956 6.56259C199.005 3.47233 189.918 1.35906 176.614 0.752221C163.281 0.143895 159.024 0 125.076 0ZM125.076 22.5225C158.453 22.5225 162.406 22.65 175.587 23.2514C187.774 23.8071 194.393 25.8435 198.798 27.5553C204.632 29.8229 208.796 32.5316 213.17 36.906C217.545 41.2799 220.253 45.4439 222.521 51.2786C224.233 55.6832 226.269 62.3019 226.825 74.4893C227.426 87.67 227.554 91.6237 227.554 125C227.554 158.376 227.426 162.33 226.825 175.511C226.269 187.698 224.233 194.317 222.521 198.721C220.253 204.556 217.545 208.72 213.17 213.094C208.796 217.468 204.632 220.177 198.798 222.445C194.393 224.157 187.774 226.193 175.587 226.749C162.408 227.35 158.455 227.478 125.076 227.478C91.6973 227.478 87.7447 227.35 74.5655 226.749C62.3781 226.193 55.7594 224.157 51.3548 222.445C45.5201 220.177 41.3561 217.468 36.9822 213.094C32.6083 208.72 29.8991 204.556 27.6315 198.721C25.9196 194.317 23.8833 187.698 23.3276 175.511C22.7262 162.33 22.5987 158.376 22.5987 125C22.5987 91.6237 22.7262 87.67 23.3276 74.4893C23.8833 62.3019 25.9196 55.6832 27.6315 51.2786C29.8991 45.4439 32.6078 41.2799 36.9822 36.906C41.3561 32.5316 45.5201 29.8229 51.3548 27.5553C55.7594 25.8435 62.3781 23.8071 74.5655 23.2514C87.7462 22.65 91.6998 22.5225 125.076 22.5225Z" fill="white"/>
</svg>
