<svg xmlns="http://www.w3.org/2000/svg" xml:space="preserve" style="fill-rule:evenodd;clip-rule:evenodd;stroke-linejoin:round;stroke-miterlimit:2" viewBox="0 0 256 57"><g id="dinamy"><path d="M30.219 12.93v22.156h.687q1.433 0 2.06.578.628.578.628 1.512 0 .913-.618 1.491t-2.07.578h-4.709v-1.014q-1.374.832-2.874 1.258a11.3 11.3 0 0 1-3.11.426q-4.532 0-7.299-2.709-2.766-2.71-2.766-6.746 0-4.22 2.904-7.203t7.083-2.983q1.57 0 3.08.497 1.51.496 2.982 1.491v-5.174h-.687q-1.452 0-2.07-.578-.618-.579-.618-1.491 0-.933.618-1.512.618-.578 2.07-.578zm-4.022 17.652q0-2.577-1.746-4.362t-4.277-1.785q-2.51 0-4.258 1.785-1.746 1.785-1.746 4.301 0 2.292 1.57 3.764 1.569 1.471 4.434 1.471 2.845 0 4.434-1.471t1.589-3.703M45.539 12.93v4.403h-4.787V12.93zm.549 7.893v14.264h4.827q1.452 0 2.07.578t.618 1.512q0 .913-.618 1.491t-2.07.578H37.24q-1.452 0-2.07-.578t-.618-1.512q0-.913.618-1.491t2.07-.578h4.827V24.983H38.83q-1.433 0-2.06-.578-.628-.578-.628-1.512 0-.913.618-1.491t2.07-.578h7.26Zm17.046 0v1.4a7.6 7.6 0 0 1 2.423-1.461q1.324-.487 2.874-.487 3.571 0 5.651 2.293 1.648 1.826 1.648 4.788v7.73q1.275 0 1.884.578.608.578.608 1.512 0 .913-.618 1.491t-2.07.578h-3.63q-1.452 0-2.07-.578t-.618-1.512q0-.913.608-1.491t1.884-.578v-7.852q0-1.36-.706-1.988-.922-.812-2.766-.812-1.393 0-2.443.558t-2.659 2.364v7.73q1.55 0 2.001.304.961.609.961 1.785 0 .913-.618 1.491t-2.07.578h-4.572q-1.452 0-2.07-.578t-.618-1.512q0-1.136.942-1.765.471-.304 2.021-.304V24.981q-1.275 0-1.884-.588-.608-.589-.608-1.501 0-.913.618-1.491t2.07-.578zm30.8 18.423v-.974a12.7 12.7 0 0 1-3.335 1.248q-1.825.416-3.316.416-3.237 0-5.258-1.775t-2.021-3.926q0-2.618 2.58-4.859t7.132-2.242q1.825 0 4.218.406v-.994q0-.933-.775-1.522-.775-.588-2.953-.588-1.785 0-4.63.73-1.06.264-1.648.264-.804 0-1.364-.599t-.559-1.532q0-.528.196-.913.197-.385.549-.619t1.472-.558a27 27 0 0 1 3.041-.68 17.5 17.5 0 0 1 2.806-.254q3.747 0 5.817 1.674t2.07 4.575v8.562h.687q1.452 0 2.07.578t.618 1.512q0 .914-.618 1.491t-2.07.578h-4.709Zm0-7.446q-2.413-.487-4.454-.487-2.453 0-4.218 1.238-1.099.792-1.099 1.603 0 .588.53.954.981.67 2.688.67 1.452 0 3.286-.588t3.267-1.603v-1.785Z" style="fill:#0ff"/><path d="M107.213 20.823V22q.981-.994 1.776-1.37.795-.375 1.834-.375a3.8 3.8 0 0 1 1.746.446q.864.447 1.687 1.339 1.04-.892 2.109-1.329a5.7 5.7 0 0 1 2.188-.436q2.236 0 3.63 1.238 1.844 1.623 1.844 4.261v9.313q1.255 0 1.864.588.608.588.608 1.501 0 .914-.608 1.491t-2.06.578h-3.826V26.118q0-.953-.334-1.319-.333-.365-1.02-.365-.667 0-1.236.365-.726.507-1.766 1.907v8.38q1.255 0 1.864.588.608.589.608 1.501 0 .913-.608 1.491t-2.06.578h-3.826V26.117q0-.933-.343-1.309t-1.03-.375q-.706 0-1.393.457t-1.648 1.816v8.38q1.256 0 1.874.588.618.589.618 1.501 0 .913-.618 1.491t-2.07.578h-3.63q-1.452 0-2.07-.578t-.618-1.512q0-.913.608-1.491t1.884-.578V24.981q-1.275 0-1.884-.588-.608-.589-.608-1.501 0-.913.618-1.491t2.07-.578z" style="fill:#0ff"/><path d="m134.284 39.104-6.965-14.122q-.981-.121-1.491-.69t-.51-1.38q0-.933.618-1.512.618-.578 2.07-.578h3.669q1.452 0 2.07.578t.618 1.512q0 .914-.618 1.491t-1.952.578l4.748 9.556 4.709-9.556q-1.295 0-1.913-.578t-.618-1.512q0-.914.618-1.491t2.07-.578h3.787q1.432 0 2.05.578t.618 1.512q0 .832-.53 1.41t-1.57.659l-9.222 18.788q1.51 0 1.982.304.942.628.942 1.785 0 .913-.618 1.491t-2.07.578h-8.77q-1.452 0-2.07-.578-.618-.579-.618-1.491 0-.933.618-1.512t2.07-.578h4.003l2.276-4.667Z" style="fill:#0ff"/></g><path id="Code" d="M167.212 17.251q.359-.493.782-.739.425-.246.914-.246.848 0 1.386.588.537.587.537 1.991v3.299q0 1.403-.537 2t-1.386.597q-.773 0-1.244-.436t-.698-1.631q-.132-.797-.528-1.232-.773-.854-2.159-1.365a8 8 0 0 0-2.781-.512q-1.734 0-3.186.758-1.451.759-2.564 2.465t-1.112 4.058v2.522q0 2.806 2.027 4.683t5.627 1.877q2.15 0 3.638-.588.867-.341 1.848-1.346.603-.607.943-.787t.773-.18q.773 0 1.357.588t.584 1.384-.792 1.706q-1.15 1.327-2.96 2.086-2.431 1.024-5.373 1.024-3.431 0-6.183-1.422-2.225-1.137-3.789-3.593a9.77 9.77 0 0 1-1.565-5.356v-2.636q0-3.034 1.404-5.66t3.893-4.048 5.279-1.422q1.678 0 3.139.389a9.8 9.8 0 0 1 2.724 1.185Zm26.182 13.709q0 2.238-1.235 4.333t-3.676 3.337-5.099 1.242q-2.64 0-5.052-1.223-2.413-1.223-3.676-3.328t-1.263-4.399q0-2.332 1.282-4.579t3.686-3.536q2.403-1.29 5.024-1.289 2.64 0 5.081 1.318t3.686 3.546q1.244 2.228 1.244 4.579Zm-3.865.019q0-1.877-1.338-3.451-1.829-2.124-4.807-2.124-2.62 0-4.374 1.688t-1.753 3.906q0 1.82 1.772 3.403t4.355 1.583q2.601 0 4.374-1.583t1.772-3.422Zm24.9-16.325v20.705h.66q1.376 0 1.979.54t.603 1.413q0 .853-.594 1.394t-1.989.54h-4.524v-.948q-1.32.777-2.762 1.176t-2.988.398q-4.355 0-7.013-2.531t-2.658-6.305q0-3.944 2.79-6.731t6.806-2.787a9.7 9.7 0 0 1 2.96.465q1.452.465 2.866 1.394v-4.835h-.66q-1.395 0-1.989-.54t-.594-1.394q0-.872.594-1.413.594-.54 1.989-.54zm-3.865 16.496q0-2.408-1.678-4.077t-4.11-1.669q-2.413 0-4.091 1.669-1.678 1.668-1.678 4.02 0 2.143 1.508 3.517t4.261 1.375q2.734 0 4.261-1.375t1.527-3.46m26.899 1.46h-15.855q.603 1.517 2.14 2.446 1.536.929 4.157.929 2.15 0 5.712-.929 1.47-.38 2.036-.379.773 0 1.301.55t.528 1.384q0 .759-.566 1.289-.754.702-3.676 1.337t-5.618.635q-4.637 0-7.418-2.636t-2.781-6.485q0-4.095 3.007-6.665t6.928-2.569q2.356 0 4.327.834 1.97.835 2.931 1.801 1.358 1.403 2.243 3.47.603 1.441.603 3.337v1.65Zm-4.279-3.887q-.886-1.668-2.319-2.493t-3.412-.825q-1.96 0-3.393.825t-2.338 2.493z" style="fill:#ec008c"/></svg>