<svg width="365" height="348" viewBox="0 0 365 348" fill="none" xmlns="http://www.w3.org/2000/svg">
<path d="M172.949 383.085C293.872 385.342 393.712 289.978 395.949 170.085C398.186 50.1925 301.973 -48.8291 181.05 -51.0853C60.128 -53.3416 -39.7124 42.0218 -41.9495 161.915C-44.1865 281.808 52.0269 380.829 172.949 383.085Z" fill="url(#paint0_linear_45_19)" fill-opacity="0.5"/>
<path d="M45.7862 290.24C11.0362 260.03 -0.783833 205.3 2.53617 161.5C5.85617 117.7 42.4662 89.6398 68.5962 82.0398C94.7262 74.4398 135.156 77.5097 163.986 133.82C176.786 188.74 170.5 282.251 247 285C323.5 287.749 345 202.5 364.286 156.24C357.156 225.75 336.75 311.8 231.68 344.24C161.35 360.01 89.5062 328.26 45.7862 290.24Z" fill="#FFA600"/>
<path d="M88.1 211.2C100.306 211.2 110.2 201.305 110.2 189.1C110.2 176.894 100.306 167 88.1 167C75.8945 167 66 176.894 66 189.1C66 201.305 75.8945 211.2 88.1 211.2Z" fill="#FF0000"/>
<path d="M254.1 211.2C266.305 211.2 276.2 201.306 276.2 189.1C276.2 176.895 266.305 167 254.1 167C241.894 167 232 176.895 232 189.1C232 201.306 241.894 211.2 254.1 211.2Z" fill="#007FD4"/>
<path d="M131.38 261.79C123.147 270.457 115.147 276.697 107.38 280.51C99.2821 284.347 90.4172 286.292 81.4566 286.197C72.496 286.101 63.6745 283.969 55.66 279.96C47.2711 275.711 39.8232 269.818 33.76 262.63C27.1871 254.816 22.0725 245.884 18.66 236.26C14.799 225.504 12.8759 214.148 12.98 202.72C12.98 178.253 20.5867 155.89 35.8 135.63C51.1333 115.263 70.7067 105.077 94.52 105.07C109.253 105.07 121.527 109.853 131.34 119.42V63.52C131.34 61.28 131.43 58.8267 131.61 56.16C131.808 53.6253 131.592 51.0752 130.97 48.61C130.389 46.3157 129.102 44.2622 127.29 42.74C125.45 41.1933 122.45 40.4167 118.29 40.41C114.957 40.41 110.723 41.41 105.59 43.41L103.21 36.9L153.46 16H161.75V213.34C161.75 233.593 162.18 245.83 163.04 250.05C164.02 254.403 165.523 257.447 167.55 259.18C169.506 260.896 172.028 261.826 174.63 261.79C177.817 261.79 182.237 260.733 187.89 258.62L189.89 265.14L139.84 286.2H131.38V261.79ZM131.38 248.74V160.79C130.91 154.293 129.32 147.925 126.68 141.97C124.408 136.863 121.299 132.172 117.48 128.09C114.089 124.465 110.01 121.551 105.48 119.52C101.346 117.639 96.8614 116.654 92.32 116.63C85.9572 116.605 79.717 118.38 74.32 121.75C68.4922 125.474 63.5582 130.439 59.87 136.29C55.4666 143.239 52.2052 150.849 50.21 158.83C47.7835 168.36 46.607 178.166 46.71 188C46.71 200.553 48.2133 211.67 51.22 221.35C54.2267 231.03 58.18 239.167 63.08 245.76C67.4933 251.91 73.2179 257.003 79.84 260.67C85.7022 263.909 92.2825 265.628 98.98 265.67C110.14 265.69 120.94 260.047 131.38 248.74Z" fill="#007FD4"/>
<path d="M324.69 208.9C322.654 219.354 319.117 229.458 314.19 238.9C309.933 247.057 304.404 254.483 297.81 260.9C291.85 266.663 284.854 271.247 277.19 274.41C269.175 277.696 260.553 279.239 251.897 278.937C243.24 278.636 234.746 276.496 226.98 272.66C218.215 268.305 210.469 262.147 204.25 254.59C197.336 246.141 192.004 236.513 188.51 226.17C184.577 215.057 182.613 202.543 182.62 188.63C182.444 176.072 184.6 163.591 188.98 151.82C192.931 141.278 198.834 131.575 206.38 123.22C213.561 115.36 222.272 109.051 231.98 104.68C241.719 100.274 252.291 98.0167 262.98 98.06C270.715 97.9818 278.406 99.2438 285.71 101.79C292.197 104.02 298.277 107.293 303.71 111.48C308.444 115.126 312.467 119.61 315.58 124.71C318.301 129.011 319.798 133.972 319.91 139.06C319.998 141.171 319.652 143.278 318.891 145.249C318.131 147.221 316.973 149.015 315.49 150.52C312.543 153.44 308.307 154.9 302.78 154.9C300.144 154.923 297.517 154.61 294.96 153.97C292.628 153.384 290.477 152.23 288.7 150.61C286.753 148.742 285.27 146.444 284.37 143.9C283.124 140.354 282.38 136.652 282.16 132.9C281.547 125.567 279.123 120.007 274.89 116.22C270.657 112.433 264.687 110.543 256.98 110.55C250.265 110.412 243.641 112.121 237.83 115.49C232.222 118.861 227.439 123.442 223.83 128.9C219.858 134.943 216.962 141.629 215.27 148.66C213.331 156.491 212.374 164.533 212.42 172.6C212.393 182.321 213.661 192.003 216.19 201.39C218.485 210.141 222.15 218.474 227.05 226.08C231.498 233.007 237.364 238.914 244.26 243.41C251.122 247.79 259.12 250.057 267.26 249.93C272.239 249.943 277.195 249.27 281.99 247.93C286.856 246.525 291.415 244.218 295.43 241.13C300.221 237.383 304.407 232.921 307.84 227.9C312.423 221.152 316.281 213.938 319.35 206.38L324.69 208.9Z" fill="#FF0000"/>
<path d="M255.173 214.526C269.257 214.526 280.673 203.11 280.673 189.026C280.673 174.943 269.257 163.526 255.173 163.526C241.09 163.526 229.673 174.943 229.673 189.026C229.673 203.11 241.09 214.526 255.173 214.526Z" stroke="black" stroke-opacity="0.3" stroke-width="4"/>
<path d="M229.673 194.693C232.803 194.693 235.34 192.156 235.34 189.026C235.34 185.897 232.803 183.36 229.673 183.36C226.544 183.36 224.007 185.897 224.007 189.026C224.007 192.156 226.544 194.693 229.673 194.693Z" fill="black"/>
<path d="M229.673 194.693L229.503 189.848C225.112 189.848 220.805 190.188 218 184.295C219.02 190.726 221.967 194.693 229.673 194.693Z" fill="black"/>
<path d="M263.016 164.109C261.451 166.82 262.38 170.285 265.09 171.85C267.8 173.415 271.266 172.486 272.831 169.776C274.396 167.066 273.467 163.6 270.757 162.035C268.046 160.47 264.581 161.399 263.016 164.109Z" fill="black"/>
<path d="M263.016 164.109L267.297 166.385C269.493 162.581 271.351 158.682 277.858 159.199C271.778 156.867 266.869 157.435 263.016 164.109Z" fill="black"/>
<path d="M272.831 208.277C271.266 205.566 267.8 204.638 265.09 206.203C262.38 207.767 261.451 211.233 263.016 213.943C264.581 216.654 268.046 217.582 270.757 216.018C273.467 214.453 274.396 210.987 272.831 208.277Z" fill="black"/>
<path d="M272.831 208.277L268.72 210.846C270.916 214.65 273.364 218.209 269.662 223.585C274.722 219.486 276.684 214.951 272.831 208.277Z" fill="black"/>
<path d="M255.173 196.11C259.085 196.11 262.257 192.938 262.257 189.026C262.257 185.114 259.085 181.943 255.173 181.943C251.261 181.943 248.09 185.114 248.09 189.026C248.09 192.938 251.261 196.11 255.173 196.11Z" fill="black"/>
<defs>
<linearGradient id="paint0_linear_45_19" x1="181.051" y1="-51.0853" x2="172.949" y2="383.085" gradientUnits="userSpaceOnUse">
<stop stop-opacity="0"/>
<stop offset="1" stop-color="#FF0000"/>
</linearGradient>
</defs>
</svg>
