<svg width="888" height="887" viewBox="0 0 888 887" fill="none" xmlns="http://www.w3.org/2000/svg">
<path d="M443.688 886.872C688.73 886.872 887.376 688.339 887.376 443.436C887.376 198.533 688.73 0 443.688 0C198.646 0 0 198.533 0 443.436C0 688.339 198.646 886.872 443.688 886.872Z" fill="#020304"/>
<path fill-rule="evenodd" clip-rule="evenodd" d="M393.543 598.86C411.316 603.301 439.245 586.173 443.688 614.72C445.592 622.333 449.401 662.933 440.514 680.696C435.436 691.481 345.937 684.502 336.416 686.406C318.643 682.599 321.817 637.558 321.182 625.505C269.133 732.716 114.254 732.716 77.4391 534.787C42.528 350.815 198.676 203.638 308.487 329.246C308.487 291.818 308.487 253.12 308.487 215.057C289.445 213.788 271.037 215.057 248.821 213.154C234.222 205.541 233.587 127.512 250.09 127.512C254.534 127.512 336.416 127.512 377.674 127.512C396.717 133.221 392.908 150.349 392.908 154.79C393.543 304.505 393.543 448.511 393.543 598.86ZM150.435 480.23C150.435 401.566 184.077 349.547 222.161 349.547C260.246 349.547 293.253 395.857 293.253 474.521C293.253 553.184 261.516 619.795 223.431 619.795C185.346 619.795 150.435 559.528 150.435 480.23Z" fill="#90FFFF"/>
<path fill-rule="evenodd" clip-rule="evenodd" d="M574.446 279.13C633.477 268.98 682.988 290.549 696.952 317.193C698.222 292.452 695.048 291.183 710.282 281.033C730.594 271.517 773.122 274.689 778.2 291.818C776.93 345.106 779.469 383.169 778.2 436.458C762.966 461.199 706.473 454.855 693.778 442.167C691.239 400.932 686.796 374.922 652.52 359.062C624.591 350.815 538.9 334.321 524.936 459.93C509.067 620.429 625.86 652.149 747.732 582.366C755.349 577.926 800.416 618.526 778.2 653.418C407.507 846.271 312.295 340.031 574.446 279.13Z" fill="#BC407D"/>
</svg>
