<?xml version="1.0" encoding="UTF-8" standalone="no"?><!DOCTYPE svg PUBLIC "-//W3C//DTD SVG 1.1//EN" "http://www.w3.org/Graphics/SVG/1.1/DTD/svg11.dtd"><svg width="100%" height="100%" viewBox="0 0 256 57" version="1.1" xmlns="http://www.w3.org/2000/svg" xmlns:xlink="http://www.w3.org/1999/xlink" xml:space="preserve" xmlns:serif="http://www.serif.com/" style="fill-rule:evenodd;clip-rule:evenodd;stroke-linejoin:round;stroke-miterlimit:2;"><g id="dinamy"><g><path d="M30.219,12.93l0,22.156l0.687,0c0.955,0 1.642,0.193 2.06,0.578c0.419,0.386 0.628,0.889 0.628,1.512c0,0.609 -0.206,1.106 -0.618,1.491c-0.412,0.386 -1.102,0.578 -2.07,0.578l-4.709,0l0,-1.014c-0.916,0.555 -1.874,0.974 -2.874,1.258c-1.001,0.284 -2.037,0.426 -3.11,0.426c-3.022,0 -5.454,-0.903 -7.299,-2.709c-1.844,-1.806 -2.766,-4.055 -2.766,-6.746c0,-2.813 0.968,-5.214 2.904,-7.203c1.936,-1.988 4.297,-2.983 7.083,-2.983c1.046,0 2.073,0.166 3.08,0.497c1.007,0.331 2.001,0.828 2.982,1.491l0,-5.174l-0.687,0c-0.968,0 -1.658,-0.193 -2.07,-0.578c-0.412,-0.386 -0.618,-0.883 -0.618,-1.491c0,-0.622 0.206,-1.126 0.618,-1.512c0.412,-0.386 1.102,-0.578 2.07,-0.578l4.709,0Zm-4.022,17.652c0,-1.718 -0.582,-3.172 -1.746,-4.362c-1.164,-1.19 -2.59,-1.785 -4.277,-1.785c-1.674,0 -3.093,0.595 -4.258,1.785c-1.164,1.19 -1.746,2.624 -1.746,4.301c0,1.528 0.523,2.783 1.57,3.764c1.046,0.981 2.524,1.471 4.434,1.471c1.897,0 3.375,-0.49 4.434,-1.471c1.059,-0.981 1.589,-2.215 1.589,-3.703Z" style="fill:#00aeef;"/><g><path d="M45.539,12.93l0,4.403l-4.787,0l0,-4.403l4.787,0Zm0.549,7.893l0,14.264l4.827,0c0.968,0 1.658,0.193 2.07,0.578c0.412,0.386 0.618,0.889 0.618,1.512c0,0.609 -0.206,1.106 -0.618,1.491c-0.412,0.386 -1.102,0.578 -2.07,0.578l-13.675,0c-0.968,0 -1.658,-0.193 -2.07,-0.578c-0.412,-0.386 -0.618,-0.889 -0.618,-1.512c0,-0.609 0.206,-1.106 0.618,-1.491c0.412,-0.386 1.102,-0.578 2.07,-0.578l4.827,0l0,-10.104l-3.237,0c-0.955,0 -1.642,-0.193 -2.06,-0.578c-0.419,-0.386 -0.628,-0.889 -0.628,-1.512c0,-0.609 0.206,-1.106 0.618,-1.491c0.412,-0.386 1.102,-0.578 2.07,-0.578l7.26,0Z" style="fill:#00aeef;"/><path d="M63.134,20.823l0,1.4c0.732,-0.649 1.54,-1.136 2.423,-1.461c0.883,-0.325 1.841,-0.487 2.874,-0.487c2.381,0 4.264,0.764 5.651,2.293c1.099,1.217 1.648,2.813 1.648,4.788l0,7.73c0.85,0 1.478,0.193 1.884,0.578c0.405,0.386 0.608,0.889 0.608,1.512c0,0.609 -0.206,1.106 -0.618,1.491c-0.412,0.386 -1.102,0.578 -2.07,0.578l-3.63,0c-0.968,0 -1.658,-0.193 -2.07,-0.578c-0.412,-0.386 -0.618,-0.889 -0.618,-1.512c0,-0.609 0.203,-1.106 0.608,-1.491c0.405,-0.386 1.033,-0.578 1.884,-0.578l0,-7.852c0,-0.906 -0.235,-1.569 -0.706,-1.988c-0.615,-0.541 -1.537,-0.812 -2.766,-0.812c-0.929,0 -1.743,0.186 -2.443,0.558c-0.7,0.372 -1.586,1.16 -2.659,2.364l0,7.73c1.033,0 1.7,0.101 2.001,0.304c0.641,0.406 0.961,1.001 0.961,1.785c0,0.609 -0.206,1.106 -0.618,1.491c-0.412,0.386 -1.102,0.578 -2.07,0.578l-4.572,0c-0.968,0 -1.658,-0.193 -2.07,-0.578c-0.412,-0.386 -0.618,-0.889 -0.618,-1.512c0,-0.757 0.314,-1.346 0.942,-1.765c0.314,-0.203 0.988,-0.304 2.021,-0.304l0,-10.104c-0.85,0 -1.478,-0.196 -1.884,-0.588c-0.405,-0.392 -0.608,-0.893 -0.608,-1.501c0,-0.609 0.206,-1.106 0.618,-1.491c0.412,-0.386 1.102,-0.578 2.07,-0.578l3.826,0Z" style="fill:#00aeef;"/><path d="M93.934,39.246l0,-0.974c-1.007,0.555 -2.119,0.971 -3.335,1.248c-1.216,0.277 -2.322,0.416 -3.316,0.416c-2.158,0 -3.911,-0.592 -5.258,-1.775c-1.347,-1.184 -2.021,-2.492 -2.021,-3.926c0,-1.745 0.86,-3.365 2.58,-4.859c1.72,-1.495 4.097,-2.242 7.132,-2.242c1.216,0 2.623,0.135 4.218,0.406l0,-0.994c0,-0.622 -0.258,-1.129 -0.775,-1.522c-0.517,-0.392 -1.501,-0.588 -2.953,-0.588c-1.19,0 -2.734,0.243 -4.63,0.73c-0.706,0.176 -1.256,0.264 -1.648,0.264c-0.536,0 -0.991,-0.2 -1.364,-0.599c-0.373,-0.399 -0.559,-0.91 -0.559,-1.532c0,-0.352 0.065,-0.656 0.196,-0.913c0.131,-0.257 0.314,-0.463 0.549,-0.619c0.235,-0.156 0.726,-0.342 1.472,-0.558c0.994,-0.284 2.008,-0.511 3.041,-0.68c1.033,-0.169 1.969,-0.254 2.806,-0.254c2.498,0 4.437,0.558 5.817,1.674c1.38,1.116 2.07,2.641 2.07,4.575l0,8.562l0.687,0c0.968,0 1.658,0.193 2.07,0.578c0.412,0.386 0.618,0.889 0.618,1.512c0,0.609 -0.206,1.106 -0.618,1.491c-0.412,0.386 -1.102,0.578 -2.07,0.578l-4.709,0Zm0,-7.446c-1.609,-0.325 -3.093,-0.487 -4.454,-0.487c-1.635,0 -3.041,0.413 -4.218,1.238c-0.732,0.528 -1.099,1.062 -1.099,1.603c0,0.392 0.177,0.71 0.53,0.954c0.654,0.446 1.55,0.67 2.688,0.67c0.968,0 2.063,-0.196 3.286,-0.588c1.223,-0.392 2.312,-0.927 3.267,-1.603l0,-1.785Z" style="fill:#00aeef;"/><path d="M107.213,20.823l0,1.177c0.654,-0.663 1.246,-1.119 1.776,-1.37c0.53,-0.25 1.141,-0.375 1.834,-0.375c0.589,0 1.171,0.149 1.746,0.446c0.576,0.298 1.138,0.744 1.687,1.339c0.693,-0.595 1.396,-1.038 2.109,-1.329c0.713,-0.291 1.442,-0.436 2.188,-0.436c1.491,0 2.701,0.413 3.63,1.238c1.23,1.082 1.844,2.502 1.844,4.261l0,9.313c0.837,0 1.458,0.196 1.864,0.588c0.405,0.392 0.608,0.893 0.608,1.501c0,0.609 -0.203,1.106 -0.608,1.491c-0.405,0.386 -1.092,0.578 -2.06,0.578l-3.826,0l0,-13.127c0,-0.636 -0.111,-1.075 -0.334,-1.319c-0.222,-0.243 -0.562,-0.365 -1.02,-0.365c-0.445,0 -0.857,0.122 -1.236,0.365c-0.484,0.338 -1.073,0.974 -1.766,1.907l0,8.38c0.837,0 1.458,0.196 1.864,0.588c0.405,0.392 0.608,0.893 0.608,1.501c0,0.609 -0.203,1.106 -0.608,1.491c-0.405,0.386 -1.092,0.578 -2.06,0.578l-3.826,0l0,-13.127c0,-0.622 -0.114,-1.058 -0.343,-1.309c-0.229,-0.25 -0.572,-0.375 -1.03,-0.375c-0.471,0 -0.935,0.152 -1.393,0.457c-0.458,0.304 -1.007,0.91 -1.648,1.816l0,8.38c0.837,0 1.462,0.196 1.874,0.588c0.412,0.392 0.618,0.893 0.618,1.501c0,0.609 -0.206,1.106 -0.618,1.491c-0.412,0.386 -1.102,0.578 -2.07,0.578l-3.63,0c-0.968,0 -1.658,-0.193 -2.07,-0.578c-0.412,-0.386 -0.618,-0.889 -0.618,-1.512c0,-0.609 0.203,-1.106 0.608,-1.491c0.405,-0.386 1.033,-0.578 1.884,-0.578l0,-10.104c-0.85,0 -1.478,-0.196 -1.884,-0.588c-0.405,-0.392 -0.608,-0.893 -0.608,-1.501c0,-0.609 0.206,-1.106 0.618,-1.491c0.412,-0.386 1.102,-0.578 2.07,-0.578l3.826,0Z" style="fill:#00aeef;"/><path d="M134.284,39.104l-6.965,-14.122c-0.654,-0.081 -1.151,-0.311 -1.491,-0.69c-0.34,-0.379 -0.51,-0.839 -0.51,-1.38c0,-0.622 0.206,-1.126 0.618,-1.512c0.412,-0.386 1.102,-0.578 2.07,-0.578l3.669,0c0.968,0 1.658,0.193 2.07,0.578c0.412,0.386 0.618,0.889 0.618,1.512c0,0.609 -0.206,1.106 -0.618,1.491c-0.412,0.386 -1.063,0.578 -1.952,0.578l4.748,9.556l4.709,-9.556c-0.863,0 -1.501,-0.193 -1.913,-0.578c-0.412,-0.386 -0.618,-0.889 -0.618,-1.512c0,-0.609 0.206,-1.106 0.618,-1.491c0.412,-0.386 1.102,-0.578 2.07,-0.578l3.787,0c0.955,0 1.638,0.193 2.05,0.578c0.412,0.386 0.618,0.889 0.618,1.512c0,0.555 -0.177,1.025 -0.53,1.41c-0.353,0.386 -0.876,0.605 -1.57,0.659l-9.222,18.788c1.007,0 1.668,0.101 1.982,0.304c0.628,0.419 0.942,1.014 0.942,1.785c0,0.609 -0.206,1.106 -0.618,1.491c-0.412,0.386 -1.102,0.578 -2.07,0.578l-8.77,0c-0.968,0 -1.658,-0.193 -2.07,-0.578c-0.412,-0.386 -0.618,-0.883 -0.618,-1.491c0,-0.622 0.206,-1.126 0.618,-1.512c0.412,-0.386 1.102,-0.578 2.07,-0.578l4.003,0l2.276,-4.667Z" style="fill:#00aeef;"/></g></g></g><g id="Code"><g><path d="M167.212,17.251c0.239,-0.329 0.5,-0.575 0.782,-0.739c0.283,-0.164 0.588,-0.246 0.914,-0.246c0.566,0 1.027,0.196 1.386,0.588c0.358,0.392 0.537,1.055 0.537,1.991l0,3.299c0,0.935 -0.179,1.602 -0.537,2c-0.358,0.398 -0.82,0.597 -1.386,0.597c-0.515,0 -0.93,-0.145 -1.244,-0.436c-0.314,-0.291 -0.547,-0.834 -0.698,-1.631c-0.088,-0.531 -0.264,-0.942 -0.528,-1.232c-0.515,-0.569 -1.235,-1.024 -2.159,-1.365c-0.924,-0.341 -1.851,-0.512 -2.781,-0.512c-1.156,0 -2.218,0.253 -3.186,0.758c-0.968,0.506 -1.822,1.327 -2.564,2.465c-0.742,1.138 -1.112,2.49 -1.112,4.058l0,2.522c0,1.871 0.676,3.432 2.027,4.683c1.351,1.251 3.227,1.877 5.627,1.877c1.433,0 2.646,-0.196 3.638,-0.588c0.578,-0.228 1.194,-0.676 1.848,-1.346c0.402,-0.405 0.716,-0.667 0.943,-0.787c0.226,-0.12 0.484,-0.18 0.773,-0.18c0.515,0 0.968,0.196 1.357,0.588c0.39,0.392 0.584,0.853 0.584,1.384c0,0.531 -0.264,1.1 -0.792,1.706c-0.767,0.885 -1.753,1.58 -2.96,2.086c-1.621,0.683 -3.412,1.024 -5.373,1.024c-2.287,0 -4.349,-0.474 -6.183,-1.422c-1.483,-0.758 -2.746,-1.956 -3.789,-3.593c-1.043,-1.637 -1.565,-3.422 -1.565,-5.356l0,-2.636c0,-2.023 0.468,-3.909 1.404,-5.66c0.936,-1.751 2.234,-3.1 3.893,-4.048c1.659,-0.948 3.419,-1.422 5.279,-1.422c1.119,0 2.165,0.13 3.139,0.389c0.974,0.259 1.882,0.654 2.724,1.185Z" style="fill:#ec008c;"/><g><path d="M193.394,30.96c0,1.492 -0.412,2.936 -1.235,4.333c-0.823,1.397 -2.049,2.509 -3.676,3.337c-1.628,0.828 -3.327,1.242 -5.099,1.242c-1.76,0 -3.444,-0.408 -5.052,-1.223c-1.609,-0.815 -2.834,-1.925 -3.676,-3.328c-0.842,-1.403 -1.263,-2.869 -1.263,-4.399c0,-1.555 0.427,-3.081 1.282,-4.579c0.855,-1.498 2.083,-2.677 3.686,-3.536c1.602,-0.86 3.277,-1.289 5.024,-1.289c1.76,0 3.453,0.439 5.081,1.318c1.628,0.879 2.856,2.06 3.686,3.546c0.829,1.485 1.244,3.012 1.244,4.579Zm-3.865,0.019c0,-1.251 -0.446,-2.402 -1.338,-3.451c-1.219,-1.416 -2.822,-2.124 -4.807,-2.124c-1.747,0 -3.205,0.563 -4.374,1.688c-1.169,1.125 -1.753,2.427 -1.753,3.906c0,1.213 0.591,2.348 1.772,3.403c1.181,1.055 2.633,1.583 4.355,1.583c1.734,0 3.192,-0.528 4.374,-1.583c1.181,-1.055 1.772,-2.196 1.772,-3.422Z" style="fill:#ec008c;"/><path d="M214.429,14.654l0,20.705l0.66,0c0.917,0 1.577,0.18 1.979,0.54c0.402,0.36 0.603,0.831 0.603,1.413c0,0.569 -0.198,1.033 -0.594,1.394c-0.396,0.36 -1.059,0.54 -1.989,0.54l-4.524,0l0,-0.948c-0.88,0.518 -1.8,0.91 -2.762,1.176c-0.961,0.265 -1.957,0.398 -2.988,0.398c-2.903,0 -5.241,-0.844 -7.013,-2.531c-1.772,-1.688 -2.658,-3.789 -2.658,-6.305c0,-2.629 0.93,-4.873 2.79,-6.731c1.86,-1.858 4.129,-2.787 6.806,-2.787c1.005,0 1.992,0.155 2.96,0.465c0.968,0.31 1.923,0.774 2.866,1.394l0,-4.835l-0.66,0c-0.93,0 -1.593,-0.18 -1.989,-0.54c-0.396,-0.36 -0.594,-0.825 -0.594,-1.394c0,-0.581 0.198,-1.052 0.594,-1.413c0.396,-0.36 1.059,-0.54 1.989,-0.54l4.524,0Zm-3.865,16.496c0,-1.605 -0.559,-2.964 -1.678,-4.077c-1.119,-1.112 -2.488,-1.669 -4.11,-1.669c-1.609,0 -2.972,0.556 -4.091,1.669c-1.119,1.112 -1.678,2.452 -1.678,4.02c0,1.428 0.503,2.601 1.508,3.517c1.005,0.916 2.426,1.375 4.261,1.375c1.822,0 3.243,-0.458 4.261,-1.375c1.018,-0.916 1.527,-2.07 1.527,-3.46Z" style="fill:#ec008c;"/><path d="M237.463,32.61l-15.855,0c0.402,1.011 1.115,1.827 2.14,2.446c1.024,0.619 2.41,0.929 4.157,0.929c1.433,0 3.337,-0.31 5.712,-0.929c0.98,-0.253 1.659,-0.379 2.036,-0.379c0.515,0 0.949,0.183 1.301,0.55c0.352,0.367 0.528,0.828 0.528,1.384c0,0.506 -0.189,0.935 -0.566,1.289c-0.503,0.468 -1.728,0.913 -3.676,1.337c-1.948,0.423 -3.821,0.635 -5.618,0.635c-3.092,0 -5.564,-0.879 -7.418,-2.636c-1.854,-1.757 -2.781,-3.919 -2.781,-6.485c0,-2.73 1.002,-4.952 3.007,-6.665c2.005,-1.713 4.314,-2.569 6.928,-2.569c1.571,0 3.013,0.278 4.327,0.834c1.313,0.556 2.291,1.157 2.931,1.801c0.905,0.935 1.653,2.092 2.243,3.47c0.402,0.961 0.603,2.073 0.603,3.337l0,1.65Zm-4.279,-3.887c-0.591,-1.112 -1.364,-1.943 -2.319,-2.493c-0.955,-0.55 -2.093,-0.825 -3.412,-0.825c-1.307,0 -2.438,0.275 -3.393,0.825c-0.955,0.55 -1.734,1.381 -2.338,2.493l11.462,0Z" style="fill:#ec008c;"/></g></g></g></svg>