<svg xmlns="http://www.w3.org/2000/svg" viewBox="0 0 364.34 347.59"><title>logo</title><path d="M63.8,333.74C29.05,303.53,17.23,248.8,20.55,205s39.93-71.86,66.06-79.46S159.17,115.37,188,171.68C205,215,188,241.07,209.93,274.81c23.87,36.72,52.94,39.92,71.06,39.92,34.93,0,87-50.14,103.37-125-7.13,69.51-27.65,162.06-132.72,194.5C181.31,400,107.52,371.76,63.8,333.74Z" transform="translate(-20.02 -41.1)" style="fill:#ffce00"/><circle cx="92.74" cy="175.73" r="22.1" style="fill:#002fd4"/><circle cx="258.12" cy="178.38" r="22.1" style="fill:#ffce00"/><path d="M151.4,286.89q-12.35,13-24,18.72a59.07,59.07,0,0,1-51.72-.55,70.07,70.07,0,0,1-21.9-17.33,85.2,85.2,0,0,1-15.1-26.37A96.67,96.67,0,0,1,33,227.82q0-36.7,22.82-67.09,23-30.55,58.72-30.56,22.1,0,36.82,14.35V88.62q0-3.36.27-7.36a23.39,23.39,0,0,0-.64-7.55,11.28,11.28,0,0,0-3.68-5.87q-2.76-2.32-9-2.33-5,0-12.7,3L123.23,62,173.48,41.1h8.29V238.44q0,30.38,1.29,36.71,1.47,6.53,4.51,9.13a10.51,10.51,0,0,0,7.08,2.61q4.78,0,13.26-3.17l2,6.52L159.86,311.3H151.4Zm0-13.05V185.89a56.48,56.48,0,0,0-4.7-18.82,50.16,50.16,0,0,0-9.2-13.88,37.37,37.37,0,0,0-12-8.57,32.19,32.19,0,0,0-13.16-2.89,33.73,33.73,0,0,0-18,5.12,47,47,0,0,0-14.45,14.54,77,77,0,0,0-9.66,22.54,113.41,113.41,0,0,0-3.5,29.17q0,18.83,4.51,33.35T83.1,270.86a51.1,51.1,0,0,0,16.76,14.91,40.09,40.09,0,0,0,19.14,5Q135.74,290.8,151.4,273.84Z" transform="translate(-20.02 -41.1)" style="fill:#002fd4"/><path d="M344.71,234a110.52,110.52,0,0,1-10.5,30,86.63,86.63,0,0,1-16.38,22,65.74,65.74,0,0,1-20.62,13.51A61.07,61.07,0,0,1,247,297.76a69.48,69.48,0,0,1-22.73-18.07,90.74,90.74,0,0,1-15.74-28.42q-5.9-16.67-5.89-37.54A101.48,101.48,0,0,1,209,176.92a89.56,89.56,0,0,1,17.4-28.6A78.1,78.1,0,0,1,252,129.78a74.48,74.48,0,0,1,31-6.62,67,67,0,0,1,22.73,3.73,63.1,63.1,0,0,1,18,9.69,48.78,48.78,0,0,1,11.87,13.23,28,28,0,0,1,4.33,14.35,15.41,15.41,0,0,1-4.42,11.46Q331.09,180,322.8,180a31.11,31.11,0,0,1-7.82-.93,14.55,14.55,0,0,1-6.26-3.36,17.3,17.3,0,0,1-4.33-6.71,40.29,40.29,0,0,1-2.21-11q-.92-11-7.27-16.68T277,135.65a36.68,36.68,0,0,0-19.15,4.94,43.89,43.89,0,0,0-14,13.41,62.66,62.66,0,0,0-8.56,19.76,97.31,97.31,0,0,0-2.85,23.94,109.47,109.47,0,0,0,3.77,28.79,85.76,85.76,0,0,0,10.86,24.69,58.28,58.28,0,0,0,17.21,17.33,41.54,41.54,0,0,0,23,6.52,54.24,54.24,0,0,0,14.73-2,40.45,40.45,0,0,0,13.44-6.8A59.24,59.24,0,0,0,327.86,253a115.91,115.91,0,0,0,11.51-21.52Z" transform="translate(-20.02 -41.1)" style="fill:red"/></svg>